<svg xmlns="http://www.w3.org/2000/svg" width="373" height="310.055" viewBox="0 0 373 310.055">
  <g id="그룹_469" data-name="그룹 469" transform="translate(-29 -406.945)">
    <g id="사각형_317" data-name="사각형 317" transform="translate(29 419)" fill="#fff" stroke="#58c0d6" stroke-width="3">
      <rect width="373" height="298" rx="31" stroke="none"/>
      <rect x="1.5" y="1.5" width="370" height="295" rx="29.5" fill="none"/>
    </g>
    <g id="다각형_1" data-name="다각형 1" transform="translate(315 408)" fill="#fff">
      <path d="M 16.5031681060791 18.50000190734863 L 3.496839046478271 18.50000190734863 C 2.225579023361206 18.50000190734863 1.089809060096741 17.8411808013916 0.4586590528488159 16.7376708984375 C -0.1724909543991089 15.63416194915771 -0.1644909530878067 14.32117176055908 0.4800690412521362 13.22543144226074 L 6.983229160308838 2.170051574707031 C 7.618759155273438 1.089641451835632 8.746528625488281 0.4446215033531189 9.999999046325684 0.4446215033531189 C 11.25346946716309 0.4446215033531189 12.38123893737793 1.089641451835632 13.01676940917969 2.170051574707031 L 19.51992988586426 13.22543144226074 C 20.16448974609375 14.32117176055908 20.17248916625977 15.63416194915771 19.54133987426758 16.7376708984375 C 18.91018867492676 17.8411922454834 17.77442932128906 18.50000190734863 16.5031681060791 18.50000190734863 Z" stroke="none"/>
      <path d="M 9.999999046325684 1.944614410400391 C 9.331389427185059 1.944614410400391 8.662778854370117 2.273265838623047 8.276128768920898 2.930571556091309 L 1.772968292236328 13.9859619140625 C 0.9886894226074219 15.31922149658203 1.94999885559082 17.00000190734863 3.496829986572266 17.00000190734863 L 16.50317001342773 17.00000190734863 C 18.04999923706055 17.00000190734863 19.01130867004395 15.31922149658203 18.22702980041504 13.9859619140625 L 11.72386932373047 2.930571556091309 C 11.33721923828125 2.273265838623047 10.66860866546631 1.944614410400391 9.999999046325684 1.944614410400391 M 9.999999046325684 -1.055389404296875 C 11.79067897796631 -1.055389404296875 13.40176963806152 -0.1339282989501953 14.30967903137207 1.409521102905273 L 20.81282806396484 12.46490097045898 C 21.71987915039062 14.00686168670654 21.73159980773926 15.92945098876953 20.84341812133789 17.48238182067871 C 19.95522880554199 19.03530120849609 18.29214859008789 20.00000190734863 16.50317001342773 20.00000190734863 L 3.496829986572266 20.00000190734863 C 1.707849502563477 20.00000190734863 0.044769287109375 19.03530120849609 -0.8434200286865234 17.48238182067871 C -1.731601715087891 15.92945098876953 -1.719881057739258 14.00686168670654 -0.8128204345703125 12.46489143371582 L 5.690328598022461 1.409511566162109 C 6.59822940826416 -0.1339282989501953 8.209319114685059 -1.055389404296875 9.999999046325684 -1.055389404296875 Z" stroke="none" fill="#58c0d6"/>
    </g>
    <rect id="사각형_318" data-name="사각형 318" width="28" height="8" transform="translate(312 422)" fill="#fff"/>
  </g>
</svg>
