<svg xmlns="http://www.w3.org/2000/svg" xmlns:xlink="http://www.w3.org/1999/xlink" width="10.29" height="11.686" viewBox="0 0 10.29 11.686">
  <defs>
    <clipPath id="clip-path">
      <rect id="사각형_1098" data-name="사각형 1098" width="10.29" height="11.686" fill="#989898"/>
    </clipPath>
  </defs>
  <g id="그룹_877" data-name="그룹 877" clip-path="url(#clip-path)">
    <path id="패스_6707" data-name="패스 6707" d="M7.981,41.475H2.309A2.312,2.312,0,0,1,0,39.166V38.6a3.913,3.913,0,0,1,4.074-3.718H6.216A3.912,3.912,0,0,1,10.29,38.6v.563a2.312,2.312,0,0,1-2.309,2.309M4.074,36.346A2.458,2.458,0,0,0,1.461,38.6v.563a.849.849,0,0,0,.848.848H7.981a.849.849,0,0,0,.848-.848V38.6a2.458,2.458,0,0,0-2.613-2.257Z" transform="translate(0 -29.789)" fill="#989898"/>
    <path id="패스_6708" data-name="패스 6708" d="M16.507,6.4a3.2,3.2,0,1,1,3.2-3.2,3.2,3.2,0,0,1-3.2,3.2m0-4.942A1.741,1.741,0,1,0,18.248,3.2a1.742,1.742,0,0,0-1.741-1.741" transform="translate(-11.362)" fill="#989898"/>
  </g>
</svg>
