<svg xmlns="http://www.w3.org/2000/svg" xmlns:xlink="http://www.w3.org/1999/xlink" width="23.146" height="19.823" viewBox="0 0 23.146 19.823">
  <defs>
    <clipPath id="clip-path">
      <path id="패스_541" data-name="패스 541" d="M1.346,9.151c0-4.3,4.588-7.8,10.227-7.8S21.8,4.847,21.8,9.151a6.8,6.8,0,0,1-2.351,4.972.674.674,0,0,0-.2.64l.635,2.873L17.4,15.94a.674.674,0,0,0-.656-.058,12.7,12.7,0,0,1-5.172,1.074c-5.639,0-10.227-3.5-10.227-7.805M11.573,0C5.192,0,0,4.105,0,9.151S5.192,18.3,11.573,18.3a14.148,14.148,0,0,0,5.374-1.041l3.58,2.444a.673.673,0,0,0,.38.118h0a.673.673,0,0,0,.673-.673.666.666,0,0,0-.039-.227l-.9-4.081a8.043,8.043,0,0,0,2.5-5.691C23.146,4.105,17.955,0,11.573,0Z" fill="none"/>
    </clipPath>
    <linearGradient id="linear-gradient" x1="0.118" y1="0.825" x2="0.126" y2="0.825" gradientUnits="objectBoundingBox">
      <stop offset="0" stop-color="#798495"/>
      <stop offset="1" stop-color="#686f71"/>
    </linearGradient>
  </defs>
  <g id="그룹_674" data-name="그룹 674" clip-path="url(#clip-path)">
    <rect id="사각형_348" data-name="사각형 348" width="30.285" height="30.447" transform="translate(-9.888 10.594) rotate(-46.975)" fill="url(#linear-gradient)"/>
  </g>
</svg>
