<svg xmlns="http://www.w3.org/2000/svg" xmlns:xlink="http://www.w3.org/1999/xlink" width="80.235" height="99" viewBox="0 0 80.235 99">
  <defs>
    <clipPath id="clip-path">
      <rect id="사각형_1114" data-name="사각형 1114" width="66.572" height="81.159" fill="none"/>
    </clipPath>
  </defs>
  <circle id="타원_57" data-name="타원 57" cx="38" cy="38" r="38" transform="translate(4.235 23)" fill="#58c0d6" opacity="0.147"/>
  <g id="그룹_912" data-name="그룹 912">
    <path id="패스_7001" data-name="패스 7001" d="M1,8.968V84.417H53.8L60.789,77.5V8.968Z" transform="translate(-0.427 -3.83)" fill="#fff"/>
    <g id="그룹_911" data-name="그룹 911">
      <g id="그룹_910" data-name="그룹 910" clip-path="url(#clip-path)">
        <path id="패스_7002" data-name="패스 7002" d="M53.376,84.562H.573A.573.573,0,0,1,0,83.99V8.542a.573.573,0,0,1,.573-.573H60.361a.572.572,0,0,1,.573.573V77.077a.576.576,0,0,1-.17.407L53.779,84.4a.576.576,0,0,1-.4.166M1.146,83.417H53.14l6.648-6.579V9.115H1.146Z" transform="translate(0 -3.403)"/>
        <path id="패스_7003" data-name="패스 7003" d="M91.175,133.812V127.1h7.048" transform="translate(-38.939 -54.281)" fill="#fff"/>
        <path id="패스_7004" data-name="패스 7004" d="M90.748,133.958a.573.573,0,0,1-.573-.573V126.67a.573.573,0,0,1,.573-.573H97.8a.573.573,0,0,1,0,1.146H91.321v6.142a.573.573,0,0,1-.573.573" transform="translate(-38.512 -53.854)"/>
        <path id="패스_7005" data-name="패스 7005" d="M58.493,93.15h-45.1a.573.573,0,0,1-.573-.573V59.716a.573.573,0,0,1,.573-.573h45.1a.573.573,0,0,1,.573.573V92.577a.573.573,0,0,1-.573.573M13.964,92H57.92V60.289H13.964Z" transform="translate(-5.474 -25.259)"/>
        <path id="패스_7006" data-name="패스 7006" d="M33.218,93.106a.573.573,0,0,1-.573-.573V60.015a.573.573,0,1,1,1.146,0V92.533a.573.573,0,0,1-.573.573" transform="translate(-13.942 -25.387)"/>
        <path id="패스_7007" data-name="패스 7007" d="M52.752,93.106a.573.573,0,0,1-.573-.573V60.015a.573.573,0,1,1,1.146,0V92.533a.573.573,0,0,1-.573.573" transform="translate(-22.285 -25.387)"/>
        <path id="패스_7008" data-name="패스 7008" d="M72.288,93.106a.573.573,0,0,1-.573-.573V60.015a.573.573,0,1,1,1.146,0V92.533a.573.573,0,0,1-.573.573" transform="translate(-30.628 -25.387)"/>
        <path id="패스_7009" data-name="패스 7009" d="M58.343,79.2H14.42a.573.573,0,1,1,0-1.146H58.343a.573.573,0,1,1,0,1.146" transform="translate(-5.914 -33.335)"/>
        <path id="패스_7010" data-name="패스 7010" d="M58.343,98.736H14.42a.573.573,0,1,1,0-1.146H58.343a.573.573,0,1,1,0,1.146" transform="translate(-5.914 -41.679)"/>
        <path id="패스_7011" data-name="패스 7011" d="M78.1,4.712,96.039,20.166l3.318-4.208L82.345,1Z" transform="translate(-33.357 -0.427)" fill="#03c3d9"/>
        <path id="패스_7012" data-name="패스 7012" d="M95.611,20.311a.569.569,0,0,1-.374-.139L77.3,4.719a.574.574,0,0,1,0-.866L81.541.14a.573.573,0,0,1,.756,0L99.307,15.1a.573.573,0,0,1,.072.785l-3.318,4.208a.575.575,0,0,1-.395.215l-.055,0M78.551,4.281,95.531,18.913,98.143,15.6,81.917,1.334Z" transform="translate(-32.93 0.001)" fill="#232020"/>
        <path id="패스_7013" data-name="패스 7013" d="M24.546,46.033a3.085,3.085,0,1,1-3.085-3.085,3.085,3.085,0,0,1,3.085,3.085" transform="translate(-7.848 -18.342)" fill="#ffcf00"/>
        <path id="패스_7014" data-name="패스 7014" d="M21.034,49.265a3.658,3.658,0,1,1,3.658-3.658,3.662,3.662,0,0,1-3.658,3.658m0-6.17a2.512,2.512,0,1,0,2.512,2.512,2.515,2.515,0,0,0-2.512-2.512" transform="translate(-7.421 -17.916)" fill="#232020"/>
        <path id="패스_7015" data-name="패스 7015" d="M43.914,46.033a3.085,3.085,0,1,1-3.085-3.085,3.085,3.085,0,0,1,3.085,3.085" transform="translate(-16.12 -18.342)" fill="#ff667e"/>
        <path id="패스_7016" data-name="패스 7016" d="M40.4,49.265a3.658,3.658,0,1,1,3.658-3.658A3.662,3.662,0,0,1,40.4,49.265m0-6.17a2.512,2.512,0,1,0,2.512,2.512A2.515,2.515,0,0,0,40.4,43.095" transform="translate(-15.693 -17.916)" fill="#232020"/>
        <path id="패스_7017" data-name="패스 7017" d="M63.282,46.033A3.085,3.085,0,1,1,60.2,42.948a3.085,3.085,0,0,1,3.085,3.085" transform="translate(-24.392 -18.342)" fill="#00c1e5"/>
        <path id="패스_7018" data-name="패스 7018" d="M59.77,49.265a3.658,3.658,0,1,1,3.658-3.658,3.662,3.662,0,0,1-3.658,3.658m0-6.17a2.512,2.512,0,1,0,2.512,2.512,2.515,2.515,0,0,0-2.512-2.512" transform="translate(-23.964 -17.916)" fill="#232020"/>
        <path id="패스_7019" data-name="패스 7019" d="M82.65,46.033a3.085,3.085,0,1,1-3.085-3.085,3.085,3.085,0,0,1,3.085,3.085" transform="translate(-32.663 -18.342)" fill="#4a85dc"/>
        <path id="패스_7020" data-name="패스 7020" d="M79.138,49.265A3.658,3.658,0,1,1,82.8,45.607a3.662,3.662,0,0,1-3.658,3.658m0-6.17a2.512,2.512,0,1,0,2.512,2.512,2.515,2.515,0,0,0-2.512-2.512" transform="translate(-32.236 -17.916)" fill="#232020"/>
      </g>
    </g>
  </g>
</svg>
