<svg xmlns="http://www.w3.org/2000/svg" xmlns:xlink="http://www.w3.org/1999/xlink" width="102.359" height="93.063" viewBox="0 0 102.359 93.063">
  <defs>
    <clipPath id="clip-path">
      <rect id="사각형_1113" data-name="사각형 1113" width="88.696" height="93.062" fill="none"/>
    </clipPath>
  </defs>
  <circle id="타원_59" data-name="타원 59" cx="38" cy="38" r="38" transform="translate(26.359 17.063)" fill="#a7a7a7" opacity="0.147"/>
  <g id="그룹_909" data-name="그룹 909">
    <path id="패스_6902" data-name="패스 6902" d="M90.1,128.9l-32.08-2.174V110.742l32.08,2.174Z" transform="translate(-35.181 -67.145)" fill="#ecd0a4"/>
    <g id="그룹_908" data-name="그룹 908">
      <g id="그룹_907" data-name="그룹 907" clip-path="url(#clip-path)">
        <path id="패스_6903" data-name="패스 6903" d="M89.651,128.739h-.02l-32.08-2.174a.3.3,0,0,1-.275-.294V110.287a.294.294,0,0,1,.094-.216.3.3,0,0,1,.222-.079l32.08,2.175a.3.3,0,0,1,.275.294v15.983a.293.293,0,0,1-.094.215.3.3,0,0,1-.2.08m-31.785-2.746,31.49,2.134V112.737L57.866,110.6Z" transform="translate(-34.727 -66.69)" fill="#201719"/>
        <path id="패스_6904" data-name="패스 6904" d="M139.776,116.914l33.374-9.951V90.975l-33.374,9.956Z" transform="translate(-84.748 -55.16)" fill="#ecd0a4"/>
        <path id="패스_6905" data-name="패스 6905" d="M139.321,116.755a.295.295,0,0,1-.3-.3V100.477a.3.3,0,0,1,.211-.283l33.374-9.956a.3.3,0,0,1,.38.283v15.988a.3.3,0,0,1-.211.283l-33.374,9.951a.307.307,0,0,1-.084.012m.3-16.058v15.367l32.783-9.775V90.917Z" transform="translate(-84.294 -54.706)" fill="#201719"/>
        <path id="패스_6906" data-name="패스 6906" d="M58.024,95.881l33.927-9.649L123.582,88.1l-33.374,9.9Z" transform="translate(-35.181 -52.284)" fill="#fff"/>
        <path id="패스_6907" data-name="패스 6907" d="M89.754,97.834h-.019L57.55,95.72a.3.3,0,0,1-.061-.579l33.927-9.649a.263.263,0,0,1,.1-.011l31.631,1.867a.3.3,0,0,1,.067.578l-33.374,9.9a.3.3,0,0,1-.084.012M59.292,95.242l30.428,2,31.709-9.4-29.9-1.765Z" transform="translate(-34.727 -51.828)" fill="#201719"/>
        <path id="패스_6908" data-name="패스 6908" d="M93.325,92.218l19.919-6.029,31.742,1.884-18.15,5.487Z" transform="translate(-56.584 -52.258)" fill="#ecd0a4"/>
        <path id="패스_6909" data-name="패스 6909" d="M126.38,93.4h-.012l-33.51-1.342a.295.295,0,0,1-.074-.577l19.919-6.03a.277.277,0,0,1,.1-.012l31.741,1.884a.3.3,0,0,1,.068.578l-18.15,5.487a.292.292,0,0,1-.086.013M94.631,91.538l31.71,1.27,16.518-4.994-30.036-1.783Z" transform="translate(-56.129 -51.802)" fill="#201719"/>
        <path id="패스_6910" data-name="패스 6910" d="M132.593,100.033a3.036,3.036,0,0,0-.432-2.755,5.531,5.531,0,0,0-1.672-1.4,2.438,2.438,0,0,0-2.253-.081,3.945,3.945,0,0,1-.772.438c-.491.135-.978-.175-1.451-.365a1.8,1.8,0,0,0-2.148.418c-.18.269-.254.616-.5.828-.443.382-1.114.11-1.7.1a1.8,1.8,0,1,0-.011,3.593c.691-.011,1.411-.41,2.037-.117.461.216.684.73,1,1.129a1.959,1.959,0,0,0,.96.683,1.321,1.321,0,0,0,1.142-.172c.446-.328.641-.977,1.166-1.155.6-.2,1.169.335,1.75.591a2.043,2.043,0,0,0,2.835-1.519Z" transform="translate(-72.657 -57.938)" fill="#93c288"/>
        <path id="패스_6911" data-name="패스 6911" d="M125.6,102.4a1.738,1.738,0,0,1-.488-.07,2.234,2.234,0,0,1-1.109-.783c-.093-.117-.179-.244-.264-.372a1.794,1.794,0,0,0-.629-.673,1.769,1.769,0,0,0-1.091.025,4.161,4.161,0,0,1-.816.12,2.064,2.064,0,0,1-1.473-3.568,2.071,2.071,0,0,1,1.485-.615,4.594,4.594,0,0,1,.548.056c.394.056.736.1.952-.081a1.194,1.194,0,0,0,.252-.4,2.69,2.69,0,0,1,.2-.365,2.08,2.08,0,0,1,2.5-.529c.1.04.2.085.3.13a1.54,1.54,0,0,0,.963.224,1.492,1.492,0,0,0,.411-.225,3.39,3.39,0,0,1,.3-.188,2.713,2.713,0,0,1,2.555.093l.141.092a5.334,5.334,0,0,1,1.615,1.4,3.329,3.329,0,0,1,.47,3l-.044.195a2.338,2.338,0,0,1-3.242,1.724,5.319,5.319,0,0,1-.509-.27c-.386-.223-.718-.418-1.028-.311a1.315,1.315,0,0,0-.552.528,2.6,2.6,0,0,1-.533.585,1.537,1.537,0,0,1-.913.288m-2.882-2.569a1.48,1.48,0,0,1,.643.136,2.277,2.277,0,0,1,.868.878c.077.114.154.229.237.335a1.674,1.674,0,0,0,.811.583,1.03,1.03,0,0,0,.884-.126,2.121,2.121,0,0,0,.408-.46,1.46,1.46,0,0,1,2.351-.378,4.815,4.815,0,0,0,.451.241,1.748,1.748,0,0,0,2.425-1.3l.05-.226c0-.011.006-.022.009-.033a2.723,2.723,0,0,0-.4-2.494,4.816,4.816,0,0,0-1.445-1.226l-.143-.093a2.132,2.132,0,0,0-1.951-.068c-.085.046-.166.1-.246.156a1.972,1.972,0,0,1-.587.307,1.994,1.994,0,0,1-1.362-.255c-.093-.042-.185-.083-.277-.12a1.524,1.524,0,0,0-1.792.309,2.255,2.255,0,0,0-.152.288,1.354,1.354,0,0,1-1.82.818,4.225,4.225,0,0,0-.478-.05,1.474,1.474,0,0,0-1.061.447,1.411,1.411,0,0,0-.006,2.1,1.525,1.525,0,0,0,1.057.453,3.691,3.691,0,0,0,.7-.106,3.9,3.9,0,0,1,.824-.118" transform="translate(-72.202 -57.48)" fill="#201719"/>
        <path id="패스_6912" data-name="패스 6912" d="M125.748,103.271q-1.51,0-3.013-.041a.3.3,0,0,1-.287-.3.283.283,0,0,1,.3-.287,111.845,111.845,0,0,0,11.3-.268.3.3,0,0,1,.317.272.3.3,0,0,1-.272.317c-2.764.206-5.56.31-8.345.31" transform="translate(-74.242 -62.07)" fill="#201719"/>
        <path id="패스_6913" data-name="패스 6913" d="M151.79,93.747a3.024,3.024,0,0,0-1.132-2.648,5.2,5.2,0,0,0-2.041-.852,2.626,2.626,0,0,0-2.294.689,4.706,4.706,0,0,1-.668.709,2.453,2.453,0,0,1-1.556.126,2.024,2.024,0,0,0-2.061,1.159,4.231,4.231,0,0,1-.3,1.011c-.35.539-1.1.493-1.689.68a2.184,2.184,0,0,0-1.4,2.444,1.782,1.782,0,0,0,2.3,1.2c.694-.247,1.32-.9,2.025-.815.519.062.874.507,1.294.8a1.862,1.862,0,0,0,1.141.365,1.485,1.485,0,0,0,1.109-.565c.367-.486.4-1.211.884-1.571.555-.412,1.264-.059,1.915,0a2.273,2.273,0,0,0,1.785-.682,2.423,2.423,0,0,0,.691-1.829Z" transform="translate(-84.041 -54.684)" fill="#93c288"/>
        <path id="패스_6914" data-name="패스 6914" d="M144.891,98.464a2.158,2.158,0,0,1-1.246-.42c-.124-.088-.243-.188-.362-.288a1.658,1.658,0,0,0-.8-.463,1.94,1.94,0,0,0-1.105.4,4.665,4.665,0,0,1-.787.4,2.074,2.074,0,0,1-1.674-.141,2.005,2.005,0,0,1-1.008-1.272,2.485,2.485,0,0,1,1.6-2.8,4.932,4.932,0,0,1,.565-.131c.421-.08.784-.149.966-.429a1.453,1.453,0,0,0,.16-.513,3.1,3.1,0,0,1,.1-.431,2.32,2.32,0,0,1,2.358-1.359c.11.007.223.018.336.03a1.587,1.587,0,0,0,1.039-.107,1.819,1.819,0,0,0,.37-.38c.08-.1.161-.2.25-.289a2.9,2.9,0,0,1,2.583-.767l.165.045a5,5,0,0,1,1.99.867,3.319,3.319,0,0,1,1.235,2.881l.006.214a2.7,2.7,0,0,1-.776,2.043,2.569,2.569,0,0,1-2.023.769,5.23,5.23,0,0,1-.583-.1c-.448-.1-.835-.177-1.129.042a1.633,1.633,0,0,0-.442.748,3.052,3.052,0,0,1-.382.763,1.77,1.77,0,0,1-1.333.681l-.078,0M142.4,96.7a1.426,1.426,0,0,1,.162.009,2.143,2.143,0,0,1,1.107.6c.106.089.212.179.322.257a1.562,1.562,0,0,0,.959.311,1.191,1.191,0,0,0,.886-.448,2.564,2.564,0,0,0,.3-.62,2.114,2.114,0,0,1,.641-1.009,1.874,1.874,0,0,1,1.6-.146,4.6,4.6,0,0,0,.515.089,1.992,1.992,0,0,0,1.548-.595,2.134,2.134,0,0,0,.606-1.6l-.007-.244c0-.011,0-.022,0-.033a2.716,2.716,0,0,0-1.03-2.4,4.505,4.505,0,0,0-1.761-.745l-.167-.045a2.32,2.32,0,0,0-2.005.61c-.076.077-.144.162-.213.247a2.284,2.284,0,0,1-.5.5,2.077,2.077,0,0,1-1.425.2c-.1-.011-.209-.021-.311-.027a1.744,1.744,0,0,0-1.764.959,2.652,2.652,0,0,0-.082.35,1.927,1.927,0,0,1-.245.726,1.859,1.859,0,0,1-1.351.687,4.547,4.547,0,0,0-.5.113,1.888,1.888,0,0,0-1.2,2.093,1.413,1.413,0,0,0,.714.893,1.482,1.482,0,0,0,1.2.1,4.149,4.149,0,0,0,.685-.35,2.66,2.66,0,0,1,1.312-.49" transform="translate(-83.586 -54.228)" fill="#201719"/>
        <path id="패스_6915" data-name="패스 6915" d="M141.542,99.443a.3.3,0,0,1-.087-.578c3.811-1.18,7.624-2.572,11.334-4.137a.3.3,0,0,1,.23.544c-3.727,1.572-7.559,2.971-11.388,4.157a.307.307,0,0,1-.087.013" transform="translate(-85.641 -57.422)" fill="#201719"/>
        <path id="패스_6916" data-name="패스 6916" d="M112.127,99.3a3.551,3.551,0,0,1-1.562,2.351,7.547,7.547,0,0,1-2.111.948,2.255,2.255,0,0,1-2.076-.315c-.177-.169-.287-.4-.513-.518-.387-.2-.96-.014-1.469.072-.789.133-1.649-.083-1.768-.736-.049-.268.031-.586-.1-.815-.239-.412-.963-.288-1.5-.377a1.282,1.282,0,0,1-.9-1.891,2.452,2.452,0,0,1,2.418-1.274c.621.128,1.1.6,1.8.452a4.653,4.653,0,0,0,1.385-.822,2.589,2.589,0,0,1,1.16-.437,1.064,1.064,0,0,1,.962.347c.265.366.165.971.566,1.217.458.282,1.2-.094,1.837-.22a1.813,1.813,0,0,1,1.589.368,1.424,1.424,0,0,1,.333,1.455Z" transform="translate(-60.618 -58.166)" fill="#93c288"/>
        <path id="패스_6917" data-name="패스 6917" d="M107.247,102.559a1.88,1.88,0,0,1-1.728-.744.882.882,0,0,0-.246-.242,1.708,1.708,0,0,0-.959.039c-.109.023-.218.045-.324.063-.93.157-1.953-.127-2.107-.974a2.034,2.034,0,0,1-.023-.371.814.814,0,0,0-.043-.348c-.091-.156-.435-.173-.769-.189a4.506,4.506,0,0,1-.522-.046,1.531,1.531,0,0,1-1.122-.8,1.676,1.676,0,0,1,0-1.507A2.724,2.724,0,0,1,102.15,96a3.356,3.356,0,0,1,.7.249,1.539,1.539,0,0,0,.975.2,2.555,2.555,0,0,0,.895-.5c.13-.1.259-.192.392-.278a2.906,2.906,0,0,1,1.3-.483,1.337,1.337,0,0,1,1.226.468,1.775,1.775,0,0,1,.252.645c.062.258.108.419.229.494.22.135.644.011,1.055-.109.187-.055.381-.111.57-.149a2.093,2.093,0,0,1,1.85.444A1.724,1.724,0,0,1,112,98.735l-.039.163a3.841,3.841,0,0,1-1.676,2.536,7.214,7.214,0,0,1-2.028.935l-.165.056a2.642,2.642,0,0,1-.847.134m-2.265-1.634a1.2,1.2,0,0,1,.565.124,1.372,1.372,0,0,1,.433.4,1.629,1.629,0,0,0,.147.17,1.985,1.985,0,0,0,1.775.249l.166-.056a6.654,6.654,0,0,0,1.864-.849,3.268,3.268,0,0,0,1.446-2.148.228.228,0,0,1,.006-.036l.046-.194a1.147,1.147,0,0,0-.249-1.172,1.53,1.53,0,0,0-1.329-.292c-.168.033-.343.085-.518.136a1.906,1.906,0,0,1-1.531.045,1.244,1.244,0,0,1-.493-.858,1.32,1.32,0,0,0-.157-.437.8.8,0,0,0-.7-.226,2.314,2.314,0,0,0-1.024.39c-.123.08-.243.169-.363.258a3.019,3.019,0,0,1-1.12.605,2.051,2.051,0,0,1-1.34-.241,2.859,2.859,0,0,0-.578-.21,2.152,2.152,0,0,0-2.092,1.112,1.091,1.091,0,0,0-.011.98.932.932,0,0,0,.7.492,3.987,3.987,0,0,0,.453.039c.468.023,1,.049,1.251.483a1.233,1.233,0,0,1,.123.645,1.57,1.57,0,0,0,.014.265c.082.449.791.605,1.428.5.1-.017.2-.038.3-.059a4.05,4.05,0,0,1,.787-.109" transform="translate(-60.163 -57.711)" fill="#201719"/>
        <path id="패스_6918" data-name="패스 6918" d="M112.672,104.215a.3.3,0,0,1-.077-.01,98.573,98.573,0,0,0-9.9-2.114.3.3,0,0,1,.094-.583,99.426,99.426,0,0,1,9.961,2.127.3.3,0,0,1-.076.581" transform="translate(-62.114 -61.543)" fill="#201719"/>
        <path id="패스_6919" data-name="패스 6919" d="M102.607,50.456l2.261-.794,29.591.794L133.48,70.8l-1.122.487" transform="translate(-62.213 -30.111)" fill="#ecd0a4"/>
        <path id="패스_6920" data-name="패스 6920" d="M131.9,71.129a.3.3,0,0,1-.118-.566l.953-.414.956-19.861L104.46,49.5l-2.209.776a.3.3,0,0,1-.2-.557l2.261-.794a.289.289,0,0,1,.106-.017l29.591.794a.3.3,0,0,1,.287.309l-.979,20.346a.3.3,0,0,1-.178.256l-1.122.487a.294.294,0,0,1-.117.024" transform="translate(-61.758 -29.656)" fill="#201719"/>
        <path id="패스_6921" data-name="패스 6921" d="M130.1,72.429l-31.214-.4,1.464-20.346,30.872.883Z" transform="translate(-59.958 -31.334)" fill="#ecd0a4"/>
        <path id="패스_6922" data-name="패스 6922" d="M129.649,72.269h0l-31.214-.4a.3.3,0,0,1-.291-.316L99.6,51.2a.293.293,0,0,1,.3-.274l30.872.883a.3.3,0,0,1,.287.312L129.943,71.99a.3.3,0,0,1-.295.279m-30.9-.99,30.618.4,1.089-19.282-30.286-.866Z" transform="translate(-59.503 -30.879)" fill="#201719"/>
        <path id="패스_6923" data-name="패스 6923" d="M103.065,102.454l-12.83,3.457-26.747-1.6,10.91-3.329-1.843-.082-14.531,3.874,32.314,2.113,14.785-4.381Z" transform="translate(-35.181 -61.179)" fill="#ecd0a4"/>
        <path id="패스_6924" data-name="패스 6924" d="M89.884,106.728h-.019l-32.314-2.113a.295.295,0,0,1-.057-.579l14.531-3.874a.257.257,0,0,1,.089-.01l1.843.082a.3.3,0,0,1,.073.578l-9.339,2.849,25.059,1.5,12.783-3.445a.381.381,0,0,1,.085-.01l2.059.054a.3.3,0,0,1,.076.578l-14.785,4.381a.288.288,0,0,1-.084.012m-30.5-2.586,30.469,1.993L102.8,102.3l-.152,0-12.788,3.446a.29.29,0,0,1-.094.009l-26.747-1.6a.3.3,0,0,1-.068-.577l9.268-2.828-.083,0Z" transform="translate(-34.727 -60.723)" fill="#201719"/>
        <path id="패스_6925" data-name="패스 6925" d="M90.1,167.938l-32.08-2.174V149.781l32.08,2.174Z" transform="translate(-35.181 -90.815)" fill="#ecd0a4"/>
        <path id="패스_6926" data-name="패스 6926" d="M89.651,167.779h-.02L57.55,165.6a.3.3,0,0,1-.275-.294V149.326a.294.294,0,0,1,.094-.216.306.306,0,0,1,.222-.079l32.08,2.175a.3.3,0,0,1,.275.294v15.983a.293.293,0,0,1-.094.215.3.3,0,0,1-.2.08m-31.785-2.746,31.49,2.135V151.777l-31.49-2.135Z" transform="translate(-34.727 -90.36)" fill="#201719"/>
        <path id="패스_6927" data-name="패스 6927" d="M139.776,155.953,173.149,146V130.014l-33.374,9.956Z" transform="translate(-84.748 -78.83)" fill="#ecd0a4"/>
        <path id="패스_6928" data-name="패스 6928" d="M139.321,155.794a.295.295,0,0,1-.3-.3V139.516a.3.3,0,0,1,.211-.283l33.374-9.957a.3.3,0,0,1,.38.283v15.989a.3.3,0,0,1-.211.283l-33.374,9.951a.306.306,0,0,1-.084.012m.3-16.058V155.1l32.783-9.775V129.955Z" transform="translate(-84.294 -78.375)" fill="#201719"/>
        <path id="패스_6929" data-name="패스 6929" d="M90.1,207.676,58.024,205.5V189.519l32.08,2.174Z" transform="translate(-35.181 -114.909)" fill="#ecd0a4"/>
        <path id="패스_6930" data-name="패스 6930" d="M89.651,207.516h-.02l-32.08-2.175a.3.3,0,0,1-.275-.294V189.064a.294.294,0,0,1,.094-.216.3.3,0,0,1,.222-.079l32.08,2.174a.3.3,0,0,1,.275.294v15.983a.293.293,0,0,1-.094.215.3.3,0,0,1-.2.08M57.866,204.77l31.49,2.135V191.514l-31.49-2.134Z" transform="translate(-34.727 -114.454)" fill="#201719"/>
        <path id="패스_6931" data-name="패스 6931" d="M139.776,195.691l33.374-9.951V169.752l-33.374,9.956Z" transform="translate(-84.748 -102.923)" fill="#ecd0a4"/>
        <path id="패스_6932" data-name="패스 6932" d="M139.321,195.531a.295.295,0,0,1-.3-.3V179.253a.3.3,0,0,1,.211-.283l33.374-9.956a.3.3,0,0,1,.38.283v15.989a.3.3,0,0,1-.211.283l-33.374,9.951a.307.307,0,0,1-.084.012m.3-16.058V194.84l32.783-9.775V169.693Z" transform="translate(-84.294 -102.469)" fill="#201719"/>
        <path id="패스_6933" data-name="패스 6933" d="M92.993,107.585l-1.232.3a.566.566,0,0,1-.707-.483l-.1-1.213a.546.546,0,0,1,.426-.57l.8-.194a.577.577,0,0,1,.655.3l.537,1.107a.538.538,0,0,1-.376.755" transform="translate(-55.145 -63.911)" fill="#ffe574"/>
        <path id="패스_6934" data-name="패스 6934" d="M91.166,107.744a.878.878,0,0,1-.514-.165.834.834,0,0,1-.346-.605l-.1-1.213a.839.839,0,0,1,.651-.881l.8-.194a.876.876,0,0,1,.991.456l.537,1.106a.815.815,0,0,1,0,.707.853.853,0,0,1-.575.465l-1.232.3a.9.9,0,0,1-.211.025m.7-2.493a.315.315,0,0,0-.071.008l-.8.194a.252.252,0,0,0-.2.259l.1,1.213a.241.241,0,0,0,.1.176.291.291,0,0,0,.24.046l1.232-.3a.267.267,0,0,0,.181-.143.225.225,0,0,0,0-.2l-.537-1.107a.274.274,0,0,0-.249-.148" transform="translate(-54.691 -63.457)" fill="#201719"/>
        <path id="패스_6935" data-name="패스 6935" d="M75.441,108.13,74.961,107a.54.54,0,0,1,.4-.736l1.242-.264a.575.575,0,0,1,.649.325l.311.728a.53.53,0,0,1-.218.662l-1.072.661a.58.58,0,0,1-.835-.251" transform="translate(-45.424 -64.265)" fill="#ffe574"/>
        <path id="패스_6936" data-name="패스 6936" d="M75.514,108.308a.889.889,0,0,1-.269-.042.853.853,0,0,1-.529-.476l-.481-1.126a.817.817,0,0,1,.027-.7.857.857,0,0,1,.587-.442l1.242-.263a.866.866,0,0,1,.982.5l.311.728a.823.823,0,0,1-.334,1.029l-1.072.662a.881.881,0,0,1-.463.131m.761-2.476a.292.292,0,0,0-.061.007l-1.243.263a.268.268,0,0,0-.185.136.224.224,0,0,0-.007.194l.481,1.126h0a.264.264,0,0,0,.165.144.3.3,0,0,0,.243-.029l1.072-.662a.235.235,0,0,0,.1-.294l-.311-.728a.276.276,0,0,0-.255-.158" transform="translate(-44.97 -63.81)" fill="#201719"/>
        <path id="패스_6937" data-name="패스 6937" d="M82.929,108.186l-.481-1.126a.54.54,0,0,1,.4-.736l1.242-.264a.575.575,0,0,1,.649.325l.311.728a.531.531,0,0,1-.218.662l-1.072.661a.58.58,0,0,1-.834-.251" transform="translate(-49.964 -64.299)" fill="#ffe574"/>
        <path id="패스_6938" data-name="패스 6938" d="M83,108.366a.89.89,0,0,1-.269-.042.854.854,0,0,1-.529-.476l-.481-1.126a.815.815,0,0,1,.027-.7.855.855,0,0,1,.587-.441l1.242-.264a.869.869,0,0,1,.982.5l.311.728a.824.824,0,0,1-.334,1.029l-1.072.661a.881.881,0,0,1-.463.131m.76-2.476a.3.3,0,0,0-.061.006l-1.242.264a.266.266,0,0,0-.185.136.224.224,0,0,0-.008.2l.481,1.125h0a.264.264,0,0,0,.165.144.3.3,0,0,0,.243-.029l1.072-.662a.234.234,0,0,0,.1-.294l-.311-.728a.276.276,0,0,0-.255-.158" transform="translate(-49.51 -63.845)" fill="#201719"/>
        <path id="패스_6939" data-name="패스 6939" d="M96.681,108.606a.786.786,0,1,1-.785-.751.769.769,0,0,1,.785.751" transform="translate(-57.667 -65.394)" fill="#5a9566"/>
        <path id="패스_6940" data-name="패스 6940" d="M95.441,109.2a1.047,1.047,0,1,1,1.081-1.046,1.065,1.065,0,0,1-1.081,1.046m0-1.5a.457.457,0,1,0,.49.455.474.474,0,0,0-.49-.455" transform="translate(-57.212 -64.94)" fill="#201719"/>
        <path id="패스_6941" data-name="패스 6941" d="M80.783,108.648a.761.761,0,1,1-.761-.727.744.744,0,0,1,.761.727" transform="translate(-48.058 -65.434)" fill="#5a9566"/>
        <path id="패스_6942" data-name="패스 6942" d="M79.568,109.216a1.023,1.023,0,1,1,1.056-1.022,1.041,1.041,0,0,1-1.056,1.022m0-1.454a.433.433,0,1,0,.465.432.45.45,0,0,0-.465-.432" transform="translate(-47.603 -64.98)" fill="#201719"/>
        <path id="패스_6943" data-name="패스 6943" d="M102.428,106.756v1.216a.561.561,0,0,1-.664.536l-1.254-.205a.551.551,0,0,1-.473-.535v-.786a.551.551,0,0,1,.464-.534l1.254-.225a.562.562,0,0,1,.673.534" transform="translate(-60.654 -64.398)" fill="#ffe574"/>
        <path id="패스_6944" data-name="패스 6944" d="M101.407,108.355a.86.86,0,0,1-.145-.012l-1.254-.2a.843.843,0,0,1-.72-.827v-.786A.846.846,0,0,1,100,105.7l1.254-.225a.878.878,0,0,1,.721.19.827.827,0,0,1,.3.635v1.216a.828.828,0,0,1-.295.631.876.876,0,0,1-.567.208m0-2.3a.308.308,0,0,0-.054.005l-1.254.225a.256.256,0,0,0-.22.243v.786a.255.255,0,0,0,.224.244l1.255.205a.289.289,0,0,0,.235-.063.238.238,0,0,0,.087-.181V106.3a.236.236,0,0,0-.088-.182.286.286,0,0,0-.184-.066" transform="translate(-60.2 -63.943)" fill="#201719"/>
        <path id="패스_6945" data-name="패스 6945" d="M106.679,109a.786.786,0,1,1-.785-.751.769.769,0,0,1,.785.751" transform="translate(-63.729 -65.632)" fill="#5a9566"/>
        <path id="패스_6946" data-name="패스 6946" d="M105.439,109.588a1.047,1.047,0,1,1,1.081-1.046,1.065,1.065,0,0,1-1.081,1.046m0-1.5a.457.457,0,1,0,.49.456.474.474,0,0,0-.49-.456" transform="translate(-63.274 -65.177)" fill="#201719"/>
        <path id="패스_6947" data-name="패스 6947" d="M88.973,108.522a.786.786,0,1,1-.785-.751.769.769,0,0,1,.785.751" transform="translate(-52.993 -65.344)" fill="#5a9566"/>
        <path id="패스_6948" data-name="패스 6948" d="M87.733,109.114a1.047,1.047,0,1,1,1.081-1.046,1.065,1.065,0,0,1-1.081,1.046m0-1.5a.457.457,0,1,0,.49.455.474.474,0,0,0-.49-.455" transform="translate(-52.539 -64.889)" fill="#201719"/>
        <path id="패스_6949" data-name="패스 6949" d="M108.711,108.186l-.481-1.126a.54.54,0,0,1,.4-.736l1.242-.264a.575.575,0,0,1,.649.325l.311.728a.531.531,0,0,1-.218.662l-1.072.661a.58.58,0,0,1-.834-.251" transform="translate(-65.597 -64.299)" fill="#ffe574"/>
        <path id="패스_6950" data-name="패스 6950" d="M108.784,108.366a.889.889,0,0,1-.269-.042.855.855,0,0,1-.53-.476l-.481-1.126a.817.817,0,0,1,.027-.7.857.857,0,0,1,.587-.441l1.242-.264a.869.869,0,0,1,.982.5l.311.728a.824.824,0,0,1-.335,1.029l-1.072.661a.879.879,0,0,1-.462.131m-.256-.75a.263.263,0,0,0,.165.145.3.3,0,0,0,.243-.029l1.072-.662a.234.234,0,0,0,.1-.294l-.311-.728a.282.282,0,0,0-.317-.152l-1.242.264a.269.269,0,0,0-.185.136.226.226,0,0,0-.007.2Z" transform="translate(-65.142 -63.845)" fill="#201719"/>
        <path id="패스_6951" data-name="패스 6951" d="M109.178,107.187a.78.78,0,0,1-.88.648.758.758,0,0,1-.677-.842.779.779,0,0,1,.88-.648.758.758,0,0,1,.677.842" transform="translate(-65.248 -64.475)" fill="#5a9566"/>
        <path id="패스_6952" data-name="패스 6952" d="M107.945,107.681a1.107,1.107,0,0,1-.139-.009,1.08,1.08,0,0,1-.729-.413,1.016,1.016,0,0,1-.2-.762,1.092,1.092,0,0,1,1.938-.488,1.019,1.019,0,0,1,.2.762,1.072,1.072,0,0,1-1.071.909m0-1.5a.48.48,0,0,0-.486.4.429.429,0,0,0,.087.322.493.493,0,0,0,.334.187.484.484,0,0,0,.551-.394.43.43,0,0,0-.087-.322.494.494,0,0,0-.333-.187.532.532,0,0,0-.066,0" transform="translate(-64.794 -64.02)" fill="#201719"/>
        <path id="패스_6953" data-name="패스 6953" d="M118.115,106.812v1.216a.561.561,0,0,1-.664.536l-1.254-.205a.551.551,0,0,1-.473-.535v-.786a.551.551,0,0,1,.464-.534l1.254-.225a.562.562,0,0,1,.673.534" transform="translate(-70.166 -64.432)" fill="#ffe574"/>
        <path id="패스_6954" data-name="패스 6954" d="M117.093,108.411a.889.889,0,0,1-.144-.012l-1.254-.2a.844.844,0,0,1-.72-.827v-.786a.846.846,0,0,1,.707-.825l1.254-.225a.876.876,0,0,1,.721.19.827.827,0,0,1,.3.635v1.216a.829.829,0,0,1-.295.631.874.874,0,0,1-.568.208m0-2.3a.308.308,0,0,0-.054.005l-1.254.225a.256.256,0,0,0-.22.243v.786a.255.255,0,0,0,.225.244l1.254.205a.291.291,0,0,0,.235-.063.238.238,0,0,0,.087-.181v-1.216a.236.236,0,0,0-.088-.182.287.287,0,0,0-.184-.066" transform="translate(-69.711 -63.977)" fill="#201719"/>
        <path id="패스_6955" data-name="패스 6955" d="M136.675,107.3v1.216a.561.561,0,0,1-.664.536l-1.254-.205a.551.551,0,0,1-.473-.535v-.786a.55.55,0,0,1,.464-.534l1.254-.225a.562.562,0,0,1,.673.534" transform="translate(-81.419 -64.727)" fill="#ffe574"/>
        <path id="패스_6956" data-name="패스 6956" d="M135.653,108.9a.86.86,0,0,1-.145-.012l-1.254-.2a.844.844,0,0,1-.72-.827v-.786a.846.846,0,0,1,.707-.825l1.254-.225a.876.876,0,0,1,.721.19.827.827,0,0,1,.3.635v1.216a.828.828,0,0,1-.295.631.876.876,0,0,1-.567.208m0-2.3a.31.31,0,0,0-.054.005l-1.254.225a.256.256,0,0,0-.22.243v.786a.255.255,0,0,0,.225.244l1.254.205a.289.289,0,0,0,.235-.063.238.238,0,0,0,.087-.181v-1.216a.236.236,0,0,0-.088-.182.287.287,0,0,0-.184-.066" transform="translate(-80.964 -64.272)" fill="#201719"/>
        <path id="패스_6957" data-name="패스 6957" d="M122.271,107.6l-1.192.424a.572.572,0,0,1-.757-.409l-.235-1.2a.539.539,0,0,1,.36-.61l.771-.274a.582.582,0,0,1,.685.23l.657,1.046a.534.534,0,0,1-.289.789" transform="translate(-72.805 -63.966)" fill="#ffe574"/>
        <path id="패스_6958" data-name="패스 6958" d="M120.426,107.9a.879.879,0,0,1-.437-.115.838.838,0,0,1-.411-.565l-.236-1.2a.832.832,0,0,1,.551-.946l.771-.274a.878.878,0,0,1,1.033.351l.657,1.046a.816.816,0,0,1,.081.705.846.846,0,0,1-.521.52l-1.192.423a.888.888,0,0,1-.3.051m.533-2.556a.29.29,0,0,0-.1.017l-.771.274a.246.246,0,0,0-.17.275l.236,1.2a.249.249,0,0,0,.124.167.293.293,0,0,0,.244.02l1.192-.423a.257.257,0,0,0,.161-.157.224.224,0,0,0-.023-.2l-.657-1.046a.282.282,0,0,0-.239-.125" transform="translate(-72.35 -63.511)" fill="#201719"/>
        <path id="패스_6959" data-name="패스 6959" d="M129.964,108.045l-1.192.424a.571.571,0,0,1-.757-.409l-.236-1.2a.54.54,0,0,1,.36-.61l.771-.274a.582.582,0,0,1,.685.23l.657,1.046a.534.534,0,0,1-.289.789" transform="translate(-77.469 -64.237)" fill="#ffe574"/>
        <path id="패스_6960" data-name="패스 6960" d="M128.117,108.344a.88.88,0,0,1-.437-.115.839.839,0,0,1-.411-.566l-.236-1.195a.832.832,0,0,1,.552-.946l.77-.274a.879.879,0,0,1,1.034.35l.657,1.046a.817.817,0,0,1,.081.705.847.847,0,0,1-.522.519l-1.191.424a.9.9,0,0,1-.3.051m.536-2.556a.3.3,0,0,0-.1.017l-.77.274a.245.245,0,0,0-.17.275l.236,1.2a.247.247,0,0,0,.124.167.293.293,0,0,0,.244.021l1.191-.424h0a.258.258,0,0,0,.161-.156.225.225,0,0,0-.024-.2l-.657-1.046a.276.276,0,0,0-.236-.125" transform="translate(-77.013 -63.784)" fill="#201719"/>
        <path id="패스_6961" data-name="패스 6961" d="M114.6,109a.786.786,0,1,1-.785-.751.769.769,0,0,1,.785.751" transform="translate(-68.529 -65.632)" fill="#5a9566"/>
        <path id="패스_6962" data-name="패스 6962" d="M113.356,109.588a1.047,1.047,0,1,1,1.081-1.046,1.065,1.065,0,0,1-1.081,1.046m0-1.5a.457.457,0,1,0,.49.456.474.474,0,0,0-.49-.456" transform="translate(-68.074 -65.177)" fill="#201719"/>
        <path id="패스_6963" data-name="패스 6963" d="M126.168,108.606a.786.786,0,1,1-.785-.751.769.769,0,0,1,.785.751" transform="translate(-75.545 -65.394)" fill="#5a9566"/>
        <path id="패스_6964" data-name="패스 6964" d="M124.927,109.2a1.047,1.047,0,1,1,1.081-1.046,1.065,1.065,0,0,1-1.081,1.046m0-1.5a.457.457,0,1,0,.491.455.475.475,0,0,0-.491-.455" transform="translate(-75.09 -64.94)" fill="#201719"/>
        <path id="패스_6965" data-name="패스 6965" d="M128.163,105.251a.786.786,0,1,1-.785-.751.769.769,0,0,1,.785.751" transform="translate(-76.755 -63.36)" fill="#5a9566"/>
        <path id="패스_6966" data-name="패스 6966" d="M126.923,105.842A1.047,1.047,0,1,1,128,104.8a1.065,1.065,0,0,1-1.081,1.046m0-1.5a.457.457,0,1,0,.49.455.474.474,0,0,0-.49-.455" transform="translate(-76.3 -62.906)" fill="#201719"/>
        <path id="패스_6967" data-name="패스 6967" d="M141.141,108.2a.786.786,0,1,1-.785-.751.769.769,0,0,1,.785.751" transform="translate(-84.624 -65.151)" fill="#5a9566"/>
        <path id="패스_6968" data-name="패스 6968" d="M139.9,108.8a1.047,1.047,0,1,1,1.081-1.046A1.065,1.065,0,0,1,139.9,108.8m0-1.5a.457.457,0,1,0,.49.455.474.474,0,0,0-.49-.455" transform="translate(-84.169 -64.697)" fill="#201719"/>
        <path id="패스_6969" data-name="패스 6969" d="M94.381,103.257l-1.405,1.6a.875.875,0,0,1-.645.121q-2.128-.292-4.36-.465c-.272-.021-.429-.124-.339-.226l1.405-1.6a1.392,1.392,0,0,1,.944-.248,22.337,22.337,0,0,1,4.016.428c.361.074.517.237.383.39" transform="translate(-53.118 -62.11)" fill="#ffe574"/>
        <path id="패스_6970" data-name="패스 6970" d="M92.041,104.828a1.552,1.552,0,0,1-.205-.013c-1.4-.193-2.865-.348-4.342-.463a.661.661,0,0,1-.61-.325.372.372,0,0,1,.071-.391l1.406-1.6a1.7,1.7,0,0,1,1.172-.348,22.693,22.693,0,0,1,4.069.435c.443.091.594.286.644.433a.442.442,0,0,1-.1.441h0l-1.405,1.6a.965.965,0,0,1-.7.232m-4.417-1.059c1.46.115,2.9.27,4.292.46a.784.784,0,0,0,.4-.04l1.279-1.457a1.137,1.137,0,0,0-.113-.029,22.086,22.086,0,0,0-3.963-.422,1.27,1.27,0,0,0-.716.148Zm6.3-.966h0Zm-.222-.195h0Z" transform="translate(-52.663 -61.656)" fill="#201719"/>
        <path id="패스_6971" data-name="패스 6971" d="M92.836,107.044a.294.294,0,0,1-.125-.028c-3.042-1.421-4.6-.619-4.616-.61a.3.3,0,0,1-.286-.517c.072-.04,1.808-.97,5.152.592a.3.3,0,0,1-.125.563" transform="translate(-53.149 -64.014)" fill="#201719"/>
        <path id="패스_6972" data-name="패스 6972" d="M108.153,103.767l-1.405,1.6a.873.873,0,0,1-.645.121q-2.128-.292-4.36-.465c-.272-.021-.429-.124-.339-.226l1.405-1.6a1.394,1.394,0,0,1,.944-.248,22.338,22.338,0,0,1,4.016.428c.361.074.517.238.383.39" transform="translate(-61.468 -62.42)" fill="#ff7768"/>
        <path id="패스_6973" data-name="패스 6973" d="M105.813,105.337a1.564,1.564,0,0,1-.205-.013c-1.4-.193-2.865-.348-4.342-.463a.661.661,0,0,1-.61-.325.373.373,0,0,1,.072-.391l1.406-1.6a1.67,1.67,0,0,1,1.172-.348,22.7,22.7,0,0,1,4.07.435c.443.091.594.286.644.433a.443.443,0,0,1-.1.441l-1.405,1.6a.964.964,0,0,1-.7.232m-4.417-1.059c1.46.115,2.9.27,4.292.46a.785.785,0,0,0,.4-.04l1.278-1.457a1.13,1.13,0,0,0-.112-.029,22.09,22.09,0,0,0-3.963-.422,1.224,1.224,0,0,0-.717.148Z" transform="translate(-61.013 -61.965)" fill="#201719"/>
        <path id="패스_6974" data-name="패스 6974" d="M106.607,107.554a.294.294,0,0,1-.125-.028c-3.042-1.421-4.6-.619-4.616-.61a.3.3,0,0,1-.286-.517c.072-.04,1.808-.97,5.152.592a.3.3,0,0,1-.125.563" transform="translate(-61.499 -64.323)" fill="#201719"/>
        <path id="패스_6975" data-name="패스 6975" d="M122.669,103.912l-1.405,1.6a.873.873,0,0,1-.645.121q-2.128-.292-4.36-.465c-.272-.021-.429-.124-.339-.226l1.405-1.6a1.392,1.392,0,0,1,.944-.248,22.338,22.338,0,0,1,4.016.428c.361.074.517.238.383.39" transform="translate(-70.269 -62.508)" fill="#ffe574"/>
        <path id="패스_6976" data-name="패스 6976" d="M120.329,105.483a1.558,1.558,0,0,1-.205-.013c-1.41-.194-2.871-.35-4.342-.463a.661.661,0,0,1-.61-.325.373.373,0,0,1,.072-.391l1.406-1.6a1.7,1.7,0,0,1,1.172-.348,22.7,22.7,0,0,1,4.07.435c.443.091.594.285.644.433a.442.442,0,0,1-.1.441l-1.405,1.6a.965.965,0,0,1-.7.232m-4.416-1.059c1.453.114,2.9.269,4.292.46a.785.785,0,0,0,.4-.04l1.279-1.457a1.153,1.153,0,0,0-.112-.029,22.1,22.1,0,0,0-3.963-.422,1.274,1.274,0,0,0-.717.148Z" transform="translate(-69.814 -62.054)" fill="#201719"/>
        <path id="패스_6977" data-name="패스 6977" d="M121.123,107.7a.294.294,0,0,1-.125-.028c-3.041-1.42-4.6-.619-4.616-.61a.3.3,0,0,1-.286-.517c.072-.04,1.808-.97,5.152.592a.3.3,0,0,1-.125.563" transform="translate(-70.3 -64.411)" fill="#201719"/>
        <path id="패스_6978" data-name="패스 6978" d="M137.886,104.765l-1.405,1.6a.875.875,0,0,1-.645.121q-2.128-.292-4.36-.465c-.272-.021-.429-.124-.339-.226l1.405-1.6a1.392,1.392,0,0,1,.944-.248,22.336,22.336,0,0,1,4.016.428c.361.074.517.238.383.39" transform="translate(-79.495 -63.025)" fill="#ff7768"/>
        <path id="패스_6979" data-name="패스 6979" d="M135.546,106.336a1.554,1.554,0,0,1-.205-.013c-1.4-.193-2.865-.349-4.343-.463a.66.66,0,0,1-.61-.325.373.373,0,0,1,.071-.391l1.406-1.6a1.659,1.659,0,0,1,1.172-.348,22.672,22.672,0,0,1,4.069.435c.443.091.595.286.644.433a.442.442,0,0,1-.1.441l-1.405,1.6a.966.966,0,0,1-.7.232m-4.417-1.059c1.461.115,2.9.27,4.292.46a.781.781,0,0,0,.4-.04l1.279-1.457a1.12,1.12,0,0,0-.112-.03,22.115,22.115,0,0,0-3.963-.422,1.31,1.31,0,0,0-.717.148Z" transform="translate(-79.04 -62.57)" fill="#201719"/>
        <path id="패스_6980" data-name="패스 6980" d="M136.34,108.553a.3.3,0,0,1-.125-.028c-3.041-1.42-4.6-.619-4.616-.61a.3.3,0,0,1-.286-.517c.072-.04,1.808-.97,5.152.592a.3.3,0,0,1-.125.563" transform="translate(-79.527 -64.929)" fill="#201719"/>
        <path id="패스_6981" data-name="패스 6981" d="M177.661,103.44l1.183,46.638,3.218-1-.631-46.637Z" transform="translate(-107.719 -62.11)" fill="#fff"/>
        <path id="패스_6982" data-name="패스 6982" d="M178.39,149.918a.3.3,0,0,1-.295-.288l-1.183-46.638a.3.3,0,0,1,.219-.292l3.771-1a.295.295,0,0,1,.371.281l.631,46.637a.3.3,0,0,1-.207.286l-3.219,1a.28.28,0,0,1-.088.014m-.882-46.708,1.167,46.014,2.635-.821-.623-46.038Z" transform="translate(-107.265 -61.655)" fill="#201719"/>
        <path id="패스_6983" data-name="패스 6983" d="M17.262,70.044h0a9.217,9.217,0,0,0,12.227-4.517l-4.012-1.848a4.8,4.8,0,1,1-8.72-4.016l-4.012-1.848a9.217,9.217,0,0,0,4.517,12.228" transform="translate(-7.214 -35.055)" fill="#d5df77"/>
        <path id="패스_6984" data-name="패스 6984" d="M18.118,60.123l2.04.94a4.8,4.8,0,1,0,8.72,4.016l1.947.9s-3.3,6.412-9.368,3.62-3.339-9.472-3.339-9.472" transform="translate(-10.615 -36.454)" fill="#ffe9c3"/>
        <path id="패스_6985" data-name="패스 6985" d="M20.644,70.73a9.512,9.512,0,0,1-8.626-13.49.294.294,0,0,1,.166-.154.3.3,0,0,1,.226.008l4.012,1.848a.3.3,0,0,1,.145.392A4.5,4.5,0,0,0,24.75,63.1a.294.294,0,0,1,.392-.145L29.154,64.8a.3.3,0,0,1,.154.166.293.293,0,0,1-.009.226,9.526,9.526,0,0,1-8.654,5.533M12.435,57.756a8.922,8.922,0,0,0,16.2,7.459l-3.479-1.6a5.1,5.1,0,0,1-9.241-4.256Z" transform="translate(-6.755 -34.601)" fill="#201719"/>
        <path id="패스_6986" data-name="패스 6986" d="M42.9,14.507a3.53,3.53,0,0,1,.95-2.409,2.987,2.987,0,0,1,2.46-.957,3.124,3.124,0,0,1,4.032-.711" transform="translate(-26.013 -6.055)" fill="#ff7768"/>
        <path id="패스_6987" data-name="패스 6987" d="M42.449,14.348a.3.3,0,0,1-.3-.294,3.82,3.82,0,0,1,1.03-2.612,3.283,3.283,0,0,1,2.546-1.059,3.42,3.42,0,0,1,4.314-.661.3.3,0,0,1-.3.507,2.828,2.828,0,0,0-3.651.644.3.3,0,0,1-.254.108,2.7,2.7,0,0,0-2.22.866,3.223,3.223,0,0,0-.869,2.2.3.3,0,0,1-.294.3Z" transform="translate(-25.559 -5.601)" fill="#201719"/>
        <path id="패스_6988" data-name="패스 6988" d="M43.337,8.138a1.668,1.668,0,0,1,1.1-1.35,1.362,1.362,0,0,1,.91-.813,5.8,5.8,0,0,0-3.524-4.034,6.509,6.509,0,0,1,1.2-1.192A9.541,9.541,0,0,1,46.318,5.48a1.5,1.5,0,0,1,1.131-.229,2.346,2.346,0,0,1,2,.042" transform="translate(-25.36 -0.454)" fill="#1e7d00"/>
        <path id="패스_6989" data-name="패스 6989" d="M42.883,7.98a.292.292,0,0,1-.041,0,.3.3,0,0,1-.252-.333,1.963,1.963,0,0,1,1.165-1.538,1.642,1.642,0,0,1,.788-.767,5.551,5.551,0,0,0-3.277-3.575.3.3,0,0,1-.128-.458A6.8,6.8,0,0,1,42.4.057a.3.3,0,0,1,.35,0A9.942,9.942,0,0,1,46.037,4.6a1.791,1.791,0,0,1,.92-.107,2.628,2.628,0,0,1,2.168.084.295.295,0,1,1-.267.526,2.061,2.061,0,0,0-1.742-.036.3.3,0,0,1-.179.021,1.2,1.2,0,0,0-.905.181.3.3,0,0,1-.453-.159A9.308,9.308,0,0,0,42.572.668a6.219,6.219,0,0,0-.72.7,6.071,6.071,0,0,1,3.331,4.085.3.3,0,0,1-.225.355,1.075,1.075,0,0,0-.69.608.3.3,0,0,1-.191.2,1.374,1.374,0,0,0-.9,1.111.3.3,0,0,1-.292.254" transform="translate(-24.905 0)" fill="#201719"/>
        <path id="패스_6990" data-name="패스 6990" d="M41.5,18.5a1.662,1.662,0,0,0-1.806-.4,2.984,2.984,0,0,0-1.45,1.277A6.042,6.042,0,0,0,37.56,23.8a9.522,9.522,0,0,0,2.073,4.047A21.731,21.731,0,0,1,41.307,29.9a12.527,12.527,0,0,0,1.321,2.073A3.062,3.062,0,0,0,47.744,30.8" transform="translate(-22.685 -10.91)" fill="#ff7768"/>
        <path id="패스_6991" data-name="패스 6991" d="M44.406,32.748a3.428,3.428,0,0,1-2.444-1.023,6.365,6.365,0,0,1-.948-1.412c-.13-.237-.264-.481-.409-.707a11.6,11.6,0,0,0-1.111-1.4c-.183-.208-.366-.415-.542-.628a9.73,9.73,0,0,1-2.135-4.175,6.333,6.333,0,0,1,.724-4.645,3.256,3.256,0,0,1,1.6-1.4,1.951,1.951,0,0,1,2.131.489.3.3,0,1,1-.452.379,1.375,1.375,0,0,0-1.481-.312,2.742,2.742,0,0,0-1.3,1.157,5.741,5.741,0,0,0-.646,4.21,9.156,9.156,0,0,0,2.012,3.92c.172.208.352.411.531.614A12.239,12.239,0,0,1,41.1,29.288c.156.243.295.5.43.742a5.848,5.848,0,0,0,.856,1.285,2.767,2.767,0,0,0,4.622-1.063.3.3,0,0,1,.561.183,3.42,3.42,0,0,1-2.439,2.231,3.219,3.219,0,0,1-.726.081" transform="translate(-22.231 -10.453)" fill="#201719"/>
        <path id="패스_6992" data-name="패스 6992" d="M58.1,11.662a2.675,2.675,0,0,1,2.383-2.116,3.679,3.679,0,0,1,3.033,1.311,6,6,0,0,1,1.319,3.116,25.578,25.578,0,0,0,.425,3.428c.45,1.57,1.641,2.989,1.481,4.614A2.892,2.892,0,0,1,62.9,24.457" transform="translate(-35.228 -5.779)" fill="#ff7768"/>
        <path id="패스_6993" data-name="패스 6993" d="M63.394,24.459a3.152,3.152,0,0,1-1.051-.177.3.3,0,0,1,.2-.557,2.6,2.6,0,0,0,3.454-2.194,5.465,5.465,0,0,0-.779-2.807,11.416,11.416,0,0,1-.692-1.7,10.712,10.712,0,0,1-.313-2.2c-.03-.417-.061-.849-.12-1.264A5.7,5.7,0,0,0,62.84,10.6a3.4,3.4,0,0,0-2.782-1.213,2.4,2.4,0,0,0-2.119,1.868.3.3,0,0,1-.584-.089A2.968,2.968,0,0,1,60,8.8a3.98,3.98,0,0,1,3.283,1.411,6.283,6.283,0,0,1,1.389,3.268c.063.435.094.878.125,1.306a10.078,10.078,0,0,0,.292,2.083,10.866,10.866,0,0,0,.658,1.606,5.987,5.987,0,0,1,.833,3.118,3.173,3.173,0,0,1-3.188,2.87" transform="translate(-34.774 -5.325)" fill="#201719"/>
        <path id="패스_6994" data-name="패스 6994" d="M54.439,16.337c-1.052-2.523-2.595-3.276-3.322-3.283a4.07,4.07,0,0,0-2.038.7,4.162,4.162,0,0,0-2.128,2.294,4.73,4.73,0,0,0,.81,3.289L50.5,24.49a12.038,12.038,0,0,0,1.463,2.31,4.042,4.042,0,0,0,2.29,1.4,2.459,2.459,0,0,0,2.425-.919,3.579,3.579,0,0,0,.455-2.077,15.589,15.589,0,0,0-1.366-6.218" transform="translate(-28.418 -7.915)" fill="#ff7768"/>
        <path id="패스_6995" data-name="패스 6995" d="M54.254,28.082a3,3,0,0,1-.5-.043,4.347,4.347,0,0,1-2.464-1.5,12.277,12.277,0,0,1-1.5-2.364l-2.74-5.153a4.969,4.969,0,0,1-.835-3.5,4.5,4.5,0,0,1,2.264-2.473,4.256,4.256,0,0,1,2.19-.74c.8.007,2.457.744,3.592,3.464a.3.3,0,0,1-.545.228c-.944-2.264-2.342-3.095-3.052-3.1H50.64a3.831,3.831,0,0,0-1.867.658,3.983,3.983,0,0,0-1.992,2.114,4.44,4.44,0,0,0,.785,3.075l2.74,5.153a11.813,11.813,0,0,0,1.425,2.254,3.767,3.767,0,0,0,2.118,1.307,2.147,2.147,0,0,0,2.131-.794,3.348,3.348,0,0,0,.4-1.907,15.375,15.375,0,0,0-1.34-6.1.3.3,0,0,1,.539-.243,15.973,15.973,0,0,1,1.392,6.336,3.858,3.858,0,0,1-.507,2.246,2.675,2.675,0,0,1-2.214,1.087" transform="translate(-27.963 -7.46)" fill="#201719"/>
        <path id="패스_6996" data-name="패스 6996" d="M40.187,26.441a.2.2,0,0,1-.182-.122,5.049,5.049,0,0,1,.735-5.282.2.2,0,0,1,.3.259,4.658,4.658,0,0,0-.668,4.873.2.2,0,0,1-.107.257.193.193,0,0,1-.075.015" transform="translate(-23.998 -12.714)" fill="#fff"/>
        <path id="패스_6997" data-name="패스 6997" d="M50.566,22.436a.2.2,0,0,1-.17-.1,7.672,7.672,0,0,1-1.033-2.36,2.468,2.468,0,0,1,.78-2.492.2.2,0,1,1,.232.317,2.074,2.074,0,0,0-.628,2.092,7.331,7.331,0,0,0,.988,2.242.2.2,0,0,1-.069.27.194.194,0,0,1-.1.028" transform="translate(-29.89 -10.58)" fill="#fff"/>
        <path id="패스_6998" data-name="패스 6998" d="M8.918,81.448h0a9.217,9.217,0,0,0,10.208-8.106l-4.388-.5A4.8,4.8,0,1,1,5.2,71.744l-4.388-.5A9.217,9.217,0,0,0,8.918,81.448" transform="translate(-0.455 -43.194)" fill="#d5df77"/>
        <path id="패스_6999" data-name="패스 6999" d="M6.369,71.869l2.232.256a4.8,4.8,0,1,0,9.537,1.094l2.13.244S19.13,80.587,12.5,79.826s-6.128-7.957-6.128-7.957" transform="translate(-3.857 -43.575)" fill="#ffe9c3"/>
        <path id="패스_7000" data-name="패스 7000" d="M9.52,81.35a9.647,9.647,0,0,1-1.091-.063A9.513,9.513,0,0,1,.063,70.753a.3.3,0,0,1,.327-.259l4.388.5a.3.3,0,0,1,.259.327,4.5,4.5,0,1,0,8.951,1.027.294.294,0,0,1,.11-.2.3.3,0,0,1,.217-.063l4.388.5a.3.3,0,0,1,.259.327A9.527,9.527,0,0,1,9.52,81.35M.621,71.114a8.922,8.922,0,0,0,17.718,2.033l-3.8-.437a5.1,5.1,0,0,1-10.107-1.16Z" transform="translate(0 -42.74)" fill="#201719"/>
      </g>
    </g>
  </g>
</svg>
