<svg xmlns="http://www.w3.org/2000/svg" xmlns:xlink="http://www.w3.org/1999/xlink" width="151" height="119.393" viewBox="0 0 151 119.393">
  <defs>
    <clipPath id="clip-path">
      <rect id="사각형_1111" data-name="사각형 1111" width="151" height="119.392" fill="none"/>
    </clipPath>
    <clipPath id="clip-path-2">
      <path id="패스_6889" data-name="패스 6889" d="M79.553,134.357c-6.452,1.252-10.156,13.954,5.485,27.232.462.392,1.705,2.081,8.158,3.333a116.641,116.641,0,0,0,21.127,1.7,116.63,116.63,0,0,0,21.127-1.7c6.453-1.252,8.158-2.728,8.158-3.333s11.106-18.9,4.654-20.151c-5.635-1.094-24.53-13.16-32.519-13.16s-30.555,4.985-36.19,6.079" transform="translate(-73.996 -128.278)" fill="none"/>
    </clipPath>
  </defs>
  <circle id="타원_58" data-name="타원 58" cx="38" cy="38" r="38" transform="translate(39.5 43.393)" fill="#838383" opacity="0.147"/>
  <g id="그룹_906" data-name="그룹 906">
    <g id="그룹_901" data-name="그룹 901">
      <g id="그룹_900" data-name="그룹 900" clip-path="url(#clip-path)">
        <path id="패스_6737" data-name="패스 6737" d="M75.472,94.867H72.394a.313.313,0,1,1,0-.626h3.078a.313.313,0,1,1,0,.626" transform="translate(-42.02 -54.939)" fill="#201719"/>
        <path id="패스_6738" data-name="패스 6738" d="M76.083,94.254a.313.313,0,0,1-.313-.313V90.864a.313.313,0,0,1,.626,0v3.078a.313.313,0,0,1-.313.313" transform="translate(-44.171 -52.787)" fill="#201719"/>
        <path id="패스_6739" data-name="패스 6739" d="M134.649,40.949h-3.078a.313.313,0,1,1,0-.626h3.078a.313.313,0,0,1,0,.626" transform="translate(-76.518 -23.507)" fill="#201719"/>
        <path id="패스_6740" data-name="패스 6740" d="M135.262,40.336a.313.313,0,0,1-.313-.313V36.946a.313.313,0,0,1,.626,0v3.078a.313.313,0,0,1-.313.313" transform="translate(-78.67 -21.356)" fill="#201719"/>
        <path id="패스_6741" data-name="패스 6741" d="M236.4,55.911h-3.078a.313.313,0,0,1,0-.626H236.4a.313.313,0,0,1,0,.626" transform="translate(-135.837 -32.229)" fill="#201719"/>
        <path id="패스_6742" data-name="패스 6742" d="M237.018,55.3a.313.313,0,0,1-.313-.313V51.908a.313.313,0,1,1,.626,0v3.078a.313.313,0,0,1-.313.313" transform="translate(-137.989 -30.078)" fill="#201719"/>
        <path id="패스_6743" data-name="패스 6743" d="M236.4,134.183h-3.078a.313.313,0,0,1,0-.626H236.4a.313.313,0,0,1,0,.626" transform="translate(-135.837 -77.858)" fill="#201719"/>
        <path id="패스_6744" data-name="패스 6744" d="M237.017,133.571a.313.313,0,0,1-.313-.313v-3.078a.313.313,0,0,1,.626,0v3.078a.313.313,0,0,1-.313.313" transform="translate(-137.988 -75.708)" fill="#201719"/>
        <path id="패스_6745" data-name="패스 6745" d="M137.451,85.057a33.16,33.16,0,0,1,1.331,8.6,49.35,49.35,0,0,0,.584,9.412c1.292,6.729,5.287,12.564,8.806,18.444s6.733,12.416,6.187,19.246c-.368,4.6-2.433,8.964-2.613,13.578-.153,3.911,1.061,7.839.44,11.7-.971,6.041-6.16,10.5-11.487,13.508a14.626,14.626,0,0,1-4.047,1.714,22.214,22.214,0,0,1-4.959.188c-4.164-.053-8.3.657-12.445,1.014a73.75,73.75,0,0,1-18.187-.691c-3.308-.54-7.025-1.651-8.411-4.7a9.144,9.144,0,0,1-.123-5.922c1.314-5.365,4.383-10.633,3.3-16.049-.64-3.212-2.67-5.941-4.065-8.9a24.187,24.187,0,0,1,2.177-23.9c4.068-5.676,8.378-10.175,9.622-17.047.87-4.8-.281-10.033,1.4-14.61" transform="translate(-52.221 -49.585)" fill="#201719"/>
        <path id="패스_6746" data-name="패스 6746" d="M112.466,182.605a74.029,74.029,0,0,1-11.924-.966c-2.98-.487-7.118-1.522-8.644-4.881-.729-1.6-.774-3.549-.142-6.126.4-1.616.956-3.241,1.5-4.813,1.25-3.63,2.543-7.384,1.8-11.1a21.669,21.669,0,0,0-2.586-6.057c-.5-.9-1.011-1.831-1.455-2.775a24.341,24.341,0,0,1,2.206-24.216c.769-1.073,1.551-2.111,2.308-3.114,3.221-4.27,6.263-8.3,7.26-13.807a35.664,35.664,0,0,0,.381-6.084c.017-2.878.034-5.854,1.036-8.578a.313.313,0,1,1,.588.216c-.965,2.621-.981,5.542-1,8.366a36.132,36.132,0,0,1-.391,6.192c-1.023,5.65-4.109,9.74-7.376,14.072-.754,1-1.535,2.035-2.3,3.1a24.028,24.028,0,0,0-2.148,23.585c.436.925.945,1.848,1.437,2.739A22.121,22.121,0,0,1,95.67,154.6c.774,3.882-.547,7.718-1.825,11.426-.537,1.559-1.093,3.171-1.481,4.759-.6,2.433-.563,4.25.1,5.718,1.4,3.086,5.338,4.059,8.176,4.522a73.431,73.431,0,0,0,18.11.689c1.309-.113,2.64-.263,3.927-.409a69.265,69.265,0,0,1,8.548-.607c.325,0,.651.013.977.022a16.594,16.594,0,0,0,3.912-.2,14.091,14.091,0,0,0,3.958-1.681c4.615-2.608,10.327-7.031,11.332-13.285a24.807,24.807,0,0,0-.139-6.6,34.3,34.3,0,0,1-.3-5.064,34,34,0,0,1,1.337-7.206,37.4,37.4,0,0,0,1.277-6.384c.547-6.837-2.8-13.473-6.143-19.061-.47-.786-.95-1.571-1.43-2.358-3.09-5.066-6.285-10.3-7.415-16.187a49.714,49.714,0,0,1-.59-9.472A32.926,32.926,0,0,0,136.68,84.7a.313.313,0,1,1,.6-.163,33.532,33.532,0,0,1,1.342,8.677,49.264,49.264,0,0,0,.578,9.353c1.109,5.773,4.274,10.962,7.335,15.979.481.788.961,1.575,1.433,2.363,3.4,5.673,6.791,12.419,6.23,19.432a37.91,37.91,0,0,1-1.3,6.493,33.525,33.525,0,0,0-1.317,7.072,33.871,33.871,0,0,0,.3,4.971,25.26,25.26,0,0,1,.134,6.77c-1.044,6.5-6.907,11.055-11.641,13.731a15.02,15.02,0,0,1-4.135,1.747,17.083,17.083,0,0,1-4.06.216c-.323-.009-.646-.017-.968-.021a69.658,69.658,0,0,0-8.47.6c-1.292.146-2.627.3-3.944.411q-3.164.272-6.341.272" transform="translate(-51.752 -49.147)" fill="#201719"/>
        <path id="패스_6747" data-name="패스 6747" d="M95.133,225.821l-7.7-3.407,7.335-23.3,11.608,2.73Z" transform="translate(-50.971 -116.076)" fill="#ffe9dc"/>
        <path id="패스_6748" data-name="패스 6748" d="M94.7,225.7a.311.311,0,0,1-.127-.027l-7.7-3.407a.314.314,0,0,1-.172-.38l7.335-23.3a.315.315,0,0,1,.37-.211l11.608,2.73a.313.313,0,0,1,.211.437L94.979,225.517a.312.312,0,0,1-.283.18M87.379,221.8l7.164,3.17,10.95-23.351L94.542,199.05Z" transform="translate(-50.533 -115.639)" fill="#201719"/>
        <path id="패스_6749" data-name="패스 6749" d="M124.765,284.449c-10.762-2.172-21.651-1.952-32.5-1.124-.344,1.6.171,4.858-.156,6.7-3.386,2.154-6.229,2.707-9.182,5.07l-7.988,5.745c-3.27,2.353-1.816,10-.6,13.844L85.065,348.52h17.958L93.1,315.706" transform="translate(-42.525 -164.823)" fill="#232424"/>
        <path id="패스_6750" data-name="패스 6750" d="M102.586,348.39H84.627a.312.312,0,0,1-.3-.218L73.609,314.336a31.376,31.376,0,0,1-1.4-7.562c-.131-3.3.58-5.528,2.112-6.631l7.988-5.745a23,23,0,0,1,5.078-2.921,34.29,34.29,0,0,0,4-2.084,19.637,19.637,0,0,0,.045-3.222,15.554,15.554,0,0,1,.09-3.356.312.312,0,0,1,.282-.246c9.679-.739,21.119-1.183,32.581,1.129a.313.313,0,1,1-.124.613c-11.292-2.278-22.584-1.862-32.169-1.137a18.514,18.514,0,0,0-.036,2.974,18.442,18.442,0,0,1-.077,3.488.31.31,0,0,1-.14.209,33.993,33.993,0,0,1-4.192,2.2,22.551,22.551,0,0,0-4.963,2.851l-8,5.755c-3.059,2.2-1.743,9.519-.483,13.5l10.652,33.617h17.308l-9.8-32.411a.313.313,0,0,1,.6-.181l9.925,32.814a.312.312,0,0,1-.3.4" transform="translate(-42.087 -164.38)" fill="#201719"/>
        <path id="패스_6751" data-name="패스 6751" d="M123.434,283.111c10.276.857,15.009,2.407,15.009,2.407l-.349,3.019a18.988,18.988,0,0,1-8.111,26.367,14.229,14.229,0,0,1-3.219,1.143l-14.031,3.265a.885.885,0,0,0-.632,1.164l10.241,28.264H103.518L92.862,315.847a8.15,8.15,0,0,1,3.4-9.495l19.722-12.347" transform="translate(-53.888 -165.042)" fill="#232424"/>
        <path id="패스_6752" data-name="패스 6752" d="M121.9,348.615H103.074a.313.313,0,0,1-.3-.216L92.12,315.507a8.437,8.437,0,0,1,3.536-9.856L115.378,293.3a.313.313,0,1,1,.332.53L95.988,306.181a7.814,7.814,0,0,0-3.274,9.13L103.3,347.989h18.153l-10.09-27.844a1.2,1.2,0,0,1,.855-1.575l14.031-3.265a14,14,0,0,0,3.148-1.117,18.759,18.759,0,0,0,9.646-11.492,18.418,18.418,0,0,0-1.664-14.439.313.313,0,0,1-.041-.193l.319-2.76a79.073,79.073,0,0,0-14.694-2.32.312.312,0,0,1-.286-.338.316.316,0,0,1,.338-.285c10.2.85,15.033,2.406,15.08,2.421a.313.313,0,0,1,.214.333l-.337,2.916a19.052,19.052,0,0,1,1.671,14.841,19.376,19.376,0,0,1-9.963,11.872,14.591,14.591,0,0,1-3.289,1.168l-14.031,3.265a.572.572,0,0,0-.409.753L122.194,348.2a.313.313,0,0,1-.294.42" transform="translate(-53.445 -164.605)" fill="#201719"/>
        <path id="패스_6753" data-name="패스 6753" d="M141.878,153.878c.054-3.223,2.875-7.8,2.875-7.8,1.776-1.5,1.567-3,1.27-6.487a26.555,26.555,0,0,0,11.765-.156c-.528,2.247-.749,5.235,1.4,6.239l.458,8.2" transform="translate(-82.709 -81.284)" fill="#ffe9dc"/>
        <path id="패스_6754" data-name="패스 6754" d="M159.207,153.755a.313.313,0,0,1-.312-.3l-.448-8.025c-1.622-.875-2.139-2.952-1.506-6.038a26.411,26.411,0,0,1-11.009.142h0c.273,3.171.411,4.774-1.376,6.306-.278.463-2.754,4.661-2.8,7.6a.312.312,0,0,1-.313.307h-.005a.314.314,0,0,1-.308-.318c.055-3.271,2.8-7.77,2.921-7.96a.317.317,0,0,1,.065-.075c1.581-1.334,1.468-2.643,1.2-5.808l-.035-.413a.313.313,0,0,1,.372-.333,26.3,26.3,0,0,0,11.642-.157.316.316,0,0,1,.287.089.311.311,0,0,1,.08.289c-.513,2.183-.717,4.976,1.227,5.884a.312.312,0,0,1,.18.266l.458,8.205a.313.313,0,0,1-.295.33h-.018" transform="translate(-82.271 -80.848)" fill="#201719"/>
        <path id="패스_6755" data-name="패스 6755" d="M124.57,109.112a2.49,2.49,0,0,0-2.29,1.125,3.932,3.932,0,0,0-.571,2.569,5.559,5.559,0,0,0,6.186,5.014" transform="translate(-70.939 -63.598)" fill="#ffe9dc"/>
        <path id="패스_6756" data-name="패스 6756" d="M126.817,117.734a5.869,5.869,0,0,1-5.856-5.335,4.243,4.243,0,0,1,.624-2.774,2.818,2.818,0,0,1,2.588-1.259.313.313,0,1,1-.08.62,2.177,2.177,0,0,0-1.991.99,3.619,3.619,0,0,0-.518,2.365,5.246,5.246,0,0,0,5.837,4.731.313.313,0,0,1,.073.621,5.76,5.76,0,0,1-.677.04" transform="translate(-70.502 -63.162)" fill="#201719"/>
        <path id="패스_6757" data-name="패스 6757" d="M155.744,83.129c.9,8.919-4.181,17.975-13.963,18.962-9.562.964-16.569-6.872-17.468-15.792a15.8,15.8,0,1,1,31.431-3.17" transform="translate(-72.42 -39.924)" fill="#ffe9dc"/>
        <path id="패스_6758" data-name="패스 6758" d="M139.784,102.047a15.169,15.169,0,0,1-10.64-4.356,19.26,19.26,0,0,1-5.579-11.8,16.665,16.665,0,0,1,3.517-12.11,15.79,15.79,0,0,1,10.849-5.967,16.347,16.347,0,0,1,17.686,14.845,19.363,19.363,0,0,1-3.028,12.663,14.974,14.974,0,0,1-11.214,6.641,15.85,15.85,0,0,1-1.591.081m-.267-33.684a15.186,15.186,0,0,0-11.945,5.811,16.045,16.045,0,0,0-3.385,11.658,18.624,18.624,0,0,0,5.392,11.409,14.55,14.55,0,0,0,11.734,4.1,14.367,14.367,0,0,0,10.759-6.37,18.732,18.732,0,0,0,2.923-12.249,15.781,15.781,0,0,0-15.478-14.362" transform="translate(-71.982 -39.488)" fill="#201719"/>
        <path id="패스_6759" data-name="패스 6759" d="M146.661,110.858a1.6,1.6,0,1,1-1.753-1.432,1.6,1.6,0,0,1,1.753,1.432" transform="translate(-83.636 -63.786)" fill="#201719"/>
        <path id="패스_6760" data-name="패스 6760" d="M169.435,108.561a1.6,1.6,0,1,1-1.753-1.432,1.6,1.6,0,0,1,1.753,1.432" transform="translate(-96.912 -62.447)" fill="#201719"/>
        <path id="패스_6761" data-name="패스 6761" d="M140.7,121.444a3.44,3.44,0,1,1-3.768-3.077,3.44,3.44,0,0,1,3.768,3.077" transform="translate(-78.02 -68.993)" fill="#ffa797"/>
        <path id="패스_6762" data-name="패스 6762" d="M176.5,118.079A3.44,3.44,0,1,1,172.736,115a3.44,3.44,0,0,1,3.767,3.077" transform="translate(-98.893 -67.031)" fill="#ffa797"/>
        <path id="패스_6763" data-name="패스 6763" d="M167.966,103.416a.313.313,0,0,1-.173-.053c-1.989-1.33-4.686-.279-4.714-.269a.313.313,0,0,1-.232-.581c.123-.049,3.027-1.185,5.294.329a.313.313,0,0,1-.174.573" transform="translate(-94.818 -59.496)" fill="#201719"/>
        <path id="패스_6764" data-name="패스 6764" d="M138.922,106.156a.313.313,0,0,1-.222-.533c1.918-1.936,4.99-1.4,5.122-1.38a.313.313,0,0,1-.112.615c-.028-.005-2.882-.495-4.565,1.2a.312.312,0,0,1-.222.093" transform="translate(-80.803 -60.72)" fill="#201719"/>
        <path id="패스_6765" data-name="패스 6765" d="M156.622,78.65c.627-12.155-4.306-19.274-15.006-20.4a22.691,22.691,0,0,0-11.338,2.021c-12.655,5.955-8.612,20.037-8.881,20.325a8.012,8.012,0,0,0,5.5-3.065,16.846,16.846,0,0,0,2.889-5.728c.566-1.757,1.092-3.687,2.561-4.8a6.2,6.2,0,0,1,2.732-1.058,5.864,5.864,0,0,1,3.339.225,6.807,6.807,0,0,1,2.613,2.435c1.7,2.363,3.119,5,5.353,6.865,2.757,2.3,6.729,2.4,10.235,3.187" transform="translate(-70.531 -33.905)" fill="#201719"/>
        <path id="패스_6766" data-name="패스 6766" d="M120.991,80.471a.313.313,0,0,1-.3-.4c0-.1-.042-.377-.08-.646-1.374-9.69,1.7-16.376,9.128-19.872a22.981,22.981,0,0,1,11.5-2.049c10.641,1.121,15.927,8.29,15.285,20.729a.312.312,0,0,1-.123.233.308.308,0,0,1-.257.056c-.84-.189-1.727-.34-2.585-.488-2.767-.473-5.627-.963-7.782-2.765a23.06,23.06,0,0,1-4.131-5.06c-.412-.617-.839-1.254-1.275-1.861a6.554,6.554,0,0,0-2.484-2.331,5.5,5.5,0,0,0-3.161-.2,5.787,5.787,0,0,0-2.6,1c-1.284.977-1.816,2.65-2.331,4.268l-.123.384a17.241,17.241,0,0,1-2.946,5.832,8.278,8.278,0,0,1-5.726,3.177h-.016m-.229-.526h0m18.653-21.909a22.708,22.708,0,0,0-9.41,2.08c-7.154,3.366-10.106,9.832-8.775,19.218.029.2.051.361.066.486a7.814,7.814,0,0,0,4.956-2.927,16.668,16.668,0,0,0,2.831-5.623l.122-.382c.544-1.71,1.106-3.479,2.548-4.576a6.384,6.384,0,0,1,2.868-1.117,6.09,6.09,0,0,1,3.518.246,7.084,7.084,0,0,1,2.742,2.539c.443.616.872,1.257,1.288,1.879a22.605,22.605,0,0,0,4.012,4.929c2.025,1.694,4.8,2.169,7.486,2.628.744.127,1.51.258,2.253.415.513-11.992-4.447-18.622-14.744-19.707a16.943,16.943,0,0,0-1.762-.087" transform="translate(-70.125 -33.468)" fill="#201719"/>
        <path id="패스_6767" data-name="패스 6767" d="M153.016,118.181a.314.314,0,0,1-.266-.147l-.372-.594a.5.5,0,0,1-.085-.226.511.511,0,0,1,.091-.327,1.32,1.32,0,0,0,.312-.87.313.313,0,0,1,.611-.134,1.76,1.76,0,0,1-.361,1.284l.334.534a.313.313,0,0,1-.265.479" transform="translate(-88.779 -67.412)" fill="#201719"/>
        <path id="패스_6768" data-name="패스 6768" d="M194.295,103.568a3.212,3.212,0,0,1,4.943-1.108,4.249,4.249,0,0,1,1.217,2.727,6.308,6.308,0,0,1-5.741,6.976" transform="translate(-113.266 -59.302)" fill="#ffe9dc"/>
        <path id="패스_6769" data-name="패스 6769" d="M194.276,112.039a.313.313,0,0,1-.026-.624,6,6,0,0,0,5.457-6.631,3.984,3.984,0,0,0-1.116-2.529,2.8,2.8,0,0,0-2.361-.6,2.919,2.919,0,0,0-2.093,1.617.313.313,0,0,1-.56-.28,3.532,3.532,0,0,1,2.536-1.952,3.44,3.44,0,0,1,2.9.75,4.593,4.593,0,0,1,1.319,2.926,6.621,6.621,0,0,1-6.027,7.322h-.026" transform="translate(-112.828 -58.866)" fill="#201719"/>
        <path id="패스_6770" data-name="패스 6770" d="M153.937,128.279a6.93,6.93,0,0,1-2.637-.535.313.313,0,0,1,.259-.57c.028.014,2.9,1.277,5.117-.4a.313.313,0,0,1,.377.5,5.079,5.079,0,0,1-3.116,1" transform="translate(-88.095 -73.868)" fill="#201719"/>
        <path id="패스_6771" data-name="패스 6771" d="M165.607,126.926a.313.313,0,0,1-.225-.1,3.106,3.106,0,0,1-.776-3.642.313.313,0,0,1,.543.31,2.461,2.461,0,0,0,.683,2.9.313.313,0,0,1-.225.53" transform="translate(-95.793 -71.722)" fill="#201719"/>
        <path id="패스_6772" data-name="패스 6772" d="M213.706,118.655a.313.313,0,0,1-.274-.464,11.581,11.581,0,0,0,.845-9.06.313.313,0,0,1,.595-.2,12.218,12.218,0,0,1-.892,9.557.313.313,0,0,1-.274.162" transform="translate(-124.4 -63.38)" fill="#201719"/>
        <path id="패스_6773" data-name="패스 6773" d="M218.524,118.434a.313.313,0,0,1-.246-.506,14.384,14.384,0,0,0,2.838-8.162,24.066,24.066,0,0,0-1.376-8.7.313.313,0,1,1,.594-.2,24.679,24.679,0,0,1,1.407,8.927,15.01,15.01,0,0,1-2.97,8.519.313.313,0,0,1-.246.12" transform="translate(-127.208 -58.676)" fill="#201719"/>
        <path id="패스_6774" data-name="패스 6774" d="M140.966,154.261,135.918,167l26.262,7.926-19.5-19.762Z" transform="translate(-79.234 -89.928)" fill="#ffe574"/>
        <path id="패스_6775" data-name="패스 6775" d="M103.655,186.81,92.372,184.9c1.868-27.1,16.723-28.8,23.6-30.925" transform="translate(-53.849 -89.759)" fill="#ffe574"/>
        <path id="패스_6776" data-name="패스 6776" d="M103.218,186.686a.281.281,0,0,1-.053,0l-11.284-1.913a.313.313,0,0,1-.26-.33c1.729-25.067,14.4-28.574,21.965-30.67.664-.184,1.292-.357,1.859-.533a.313.313,0,1,1,.184.6c-.576.177-1.207.352-1.876.538-7.381,2.044-19.715,5.459-21.489,29.828l11,1.865a.313.313,0,0,1-.052.621" transform="translate(-53.411 -89.322)" fill="#201719"/>
        <path id="패스_6777" data-name="패스 6777" d="M118.132,178.208a23.461,23.461,0,0,0-3.114,16.32,35.9,35.9,0,0,1,.509,7.328l-.587,22.509H153.1V189.907" transform="translate(-66.839 -103.888)" fill="#ffe574"/>
        <path id="패스_6778" data-name="패스 6778" d="M152.671,224.239H114.508a.313.313,0,0,1-.313-.321l.587-22.509a35.178,35.178,0,0,0-.5-7.264,24,24,0,0,1,3.165-16.554.313.313,0,0,1,.515.356,23.345,23.345,0,0,0-3.064,16.087,35.86,35.86,0,0,1,.514,7.392l-.578,22.188h37.53V189.469a.313.313,0,1,1,.626,0v34.457a.313.313,0,0,1-.313.313" transform="translate(-66.407 -103.45)" fill="#201719"/>
        <path id="패스_6779" data-name="패스 6779" d="M220.991,223.618l-11.359,4.595-8.628-22.254,10.786-4.211Z" transform="translate(-117.178 -117.611)" fill="#ffe9dc"/>
        <path id="패스_6780" data-name="패스 6780" d="M209.2,228.089a.313.313,0,0,1-.291-.2l-8.628-22.254a.313.313,0,0,1,.178-.4l10.787-4.211a.313.313,0,0,1,.4.17l9.2,21.87a.313.313,0,0,1-.171.411l-11.359,4.595a.317.317,0,0,1-.117.023M200.971,205.7l8.4,21.667,10.771-4.357-8.959-21.3Z" transform="translate(-116.74 -117.174)" fill="#201719"/>
        <path id="패스_6781" data-name="패스 6781" d="M148.97,153.972c2.056,1.714,3.9,2.773,6.576,2.755a11.558,11.558,0,0,0,7.37-2.755c1.585.621,3.007.938,4.557,1.642,5.123,2.327,13.786,3.1,19.938,26.595l-14.963,3.833-4.257-11.622" transform="translate(-86.843 -89.759)" fill="#ffe574"/>
        <path id="패스_6782" data-name="패스 6782" d="M172.011,185.918a.312.312,0,0,1-.294-.205l-4.257-11.622a.313.313,0,1,1,.587-.215l4.16,11.356,14.384-3.685c-5.424-20.476-12.6-23.281-17.853-25.333-.648-.253-1.259-.492-1.832-.752a23.816,23.816,0,0,0-2.591-.957c-.573-.186-1.164-.378-1.776-.612a11.941,11.941,0,0,1-7.428,2.709h-.069c-2.751,0-4.673-1.131-6.709-2.828a.313.313,0,1,1,.4-.481c2,1.669,3.762,2.683,6.373,2.682a11.3,11.3,0,0,0,7.169-2.679.314.314,0,0,1,.318-.054c.657.258,1.3.466,1.915.667a24.8,24.8,0,0,1,2.657.983c.558.254,1.161.49,1.8.74,5.1,1.991,12.8,5,18.31,26.06a.313.313,0,0,1-.225.382l-14.963,3.834a.334.334,0,0,1-.078.01" transform="translate(-86.406 -89.322)" fill="#201719"/>
        <path id="패스_6783" data-name="패스 6783" d="M85.82,227.971h0a5.293,5.293,0,0,1-6.153-4.262L75.5,200.786l7.033-2.177,7.546,23.208a5.292,5.292,0,0,1-4.262,6.153" transform="translate(-44.016 -115.781)" fill="#ffe9dc"/>
        <path id="패스_6784" data-name="패스 6784" d="M84.435,227.932a5.615,5.615,0,0,1-5.513-4.6L74.758,200.4a.313.313,0,0,1,.216-.354l7.033-2.177a.312.312,0,0,1,.39.2l7.545,23.209a.322.322,0,0,1,.011.04,5.607,5.607,0,0,1-5.518,6.608m.948-.4h0Zm-9.959-26.968,4.114,22.651a4.98,4.98,0,0,0,9.8-1.76L81.9,198.561Z" transform="translate(-43.578 -115.343)" fill="#201719"/>
        <path id="패스_6785" data-name="패스 6785" d="M86.7,165.172l-.329.052A1.11,1.11,0,0,1,85.1,164.3l-2.849-18.115,2.521-.4,2.85,18.114a1.11,1.11,0,0,1-.924,1.269" transform="translate(-47.951 -84.989)" fill="#201719"/>
        <path id="패스_6786" data-name="패스 6786" d="M85.759,165.113a1.424,1.424,0,0,1-1.4-1.2L81.507,145.8a.313.313,0,0,1,.261-.357l2.521-.4a.313.313,0,0,1,.358.261l2.85,18.114a1.424,1.424,0,0,1-1.184,1.626l-.329.052a1.456,1.456,0,0,1-.224.018m.5-.379h0Zm-4.09-18.726,2.8,17.805a.8.8,0,0,0,.911.664l.329-.052a.8.8,0,0,0,.663-.911l-2.8-17.806Z" transform="translate(-47.513 -84.551)" fill="#201719"/>
        <path id="패스_6787" data-name="패스 6787" d="M79.5,123.514l.622,3.954a.7.7,0,0,1-.365.729.837.837,0,0,1-.537.12c-.46-.049-.686-.588-.759-1.046l-.552-3.507-1.066.168.584,3.711a.833.833,0,0,1-.43.889.821.821,0,0,1-1.157-.617l-.587-3.733-1.066.168.662,4.21.576,3.661.012.074a1.494,1.494,0,0,0,1.708,1.244L80.57,133a1.5,1.5,0,0,0,1.244-1.708l-.012-.074-.576-3.661-.662-4.209Z" transform="translate(-43.246 -71.906)" fill="#201719"/>
        <path id="패스_6788" data-name="패스 6788" d="M76.472,133.431a1.81,1.81,0,0,1-1.785-1.526l-.587-3.735-.662-4.209a.313.313,0,0,1,.261-.357l1.066-.168a.316.316,0,0,1,.233.056.312.312,0,0,1,.125.2l.588,3.733a.509.509,0,0,0,.716.382.524.524,0,0,0,.253-.557l-.584-3.712a.313.313,0,0,1,.261-.357l1.066-.168a.313.313,0,0,1,.358.261l.552,3.508c.054.343.213.754.483.783a.529.529,0,0,0,.353-.083.389.389,0,0,0,.207-.407l-.622-3.954a.312.312,0,0,1,.261-.357l1.066-.168a.313.313,0,0,1,.358.261l1.249,7.943a1.809,1.809,0,0,1-1.5,2.067l-3.428.539a1.8,1.8,0,0,1-.282.022M74.1,124.172l1.2,7.637a1.179,1.179,0,0,0,1.351.982l3.429-.539a1.182,1.182,0,0,0,.983-1.351l-1.2-7.636-.448.07.573,3.645a1.014,1.014,0,0,1-.524,1.053,1.156,1.156,0,0,1-.721.157c-.527-.057-.914-.546-1.034-1.308l-.5-3.2-.448.07.535,3.4a1.145,1.145,0,0,1-.6,1.22,1.134,1.134,0,0,1-1.6-.851l-.538-3.424Z" transform="translate(-42.809 -71.468)" fill="#201719"/>
        <path id="패스_6789" data-name="패스 6789" d="M72.152,181.844a24.622,24.622,0,0,0-1.624-6.691c-.415-1.143-.845-2.28-1.232-3.433-.265-.789-1.03-2.19-.741-2.992a11.262,11.262,0,0,0,.633-4.333,2.309,2.309,0,0,1,.12-.982,2.165,2.165,0,0,1,.58-.809l2.889-2.729a2.418,2.418,0,0,1,1.056-.647,2.5,2.5,0,0,1,1.069-.012l4.2.684a1.349,1.349,0,0,1,1.109,1.492,1.235,1.235,0,0,1-1.431,1.079l-4.205-.684-.025.023-2.8,2.647a13.9,13.9,0,0,1-.786,5.234" transform="translate(-39.927 -92.784)" fill="#ffe9dc"/>
        <path id="패스_6790" data-name="패스 6790" d="M71.715,181.72a.312.312,0,0,1-.311-.286,24.283,24.283,0,0,0-1.607-6.611l-.332-.91c-.3-.826-.617-1.68-.9-2.53-.06-.181-.148-.395-.244-.626a4.119,4.119,0,0,1-.5-2.571,10.947,10.947,0,0,0,.616-4.211,2.594,2.594,0,0,1,.139-1.11,2.5,2.5,0,0,1,.657-.925l2.89-2.73a2.736,2.736,0,0,1,1.19-.722,2.821,2.821,0,0,1,1.2-.018l4.2.684a1.665,1.665,0,0,1,1.369,1.84,1.547,1.547,0,0,1-1.792,1.349l-4.052-.659-2.612,2.467a14.212,14.212,0,0,1-.809,5.209.313.313,0,1,1-.589-.211A13.6,13.6,0,0,0,71,164.033a.311.311,0,0,1,.1-.24l2.8-2.647a.389.389,0,0,1,.29-.1l4.2.684a.913.913,0,0,0,.7-.169.935.935,0,0,0,.367-.64,1.035,1.035,0,0,0-.848-1.144l-4.2-.684a2.173,2.173,0,0,0-.939.006,2.115,2.115,0,0,0-.92.572l-2.89,2.729a1.867,1.867,0,0,0-.5.694,2,2,0,0,0-.1.854,11.58,11.58,0,0,1-.651,4.454,3.926,3.926,0,0,0,.486,2.123c.1.245.194.472.258.664.282.842.594,1.692.9,2.514l.334.912a24.83,24.83,0,0,1,1.641,6.772.312.312,0,0,1-.286.337h-.026" transform="translate(-39.491 -92.348)" fill="#201719"/>
        <path id="패스_6791" data-name="패스 6791" d="M84.017,170.244a1.218,1.218,0,0,1-1.638.307,24.5,24.5,0,0,1-2.231-1.605l-.03-.024a2.126,2.126,0,0,0-.346-.249,2.081,2.081,0,0,0-.422-.058l-1.872-.148-2.78,2.788a1.218,1.218,0,1,1-1.726-1.721l2.9-2.91a1.841,1.841,0,0,1,1.641-.6l2.03.161a3.141,3.141,0,0,1,2.109.843l.029.023a22.183,22.183,0,0,0,2.008,1.445,1.219,1.219,0,0,1,.373,1.683c-.015.022-.03.045-.045.065M77.645,168.3v0Z" transform="translate(-42.332 -96.777)" fill="#ffe9dc"/>
        <path id="패스_6792" data-name="패스 6792" d="M73.4,171.487a1.531,1.531,0,0,1-1.084-2.612l2.9-2.909a2.149,2.149,0,0,1,1.887-.691l2.03.161a4.03,4.03,0,0,1,1.229.248,3.986,3.986,0,0,1,1.047.661l.033.027a21.715,21.715,0,0,0,1.98,1.424,1.532,1.532,0,0,1,.468,2.114c-.018.028-.037.057-.058.085a1.536,1.536,0,0,1-2.057.385,25.017,25.017,0,0,1-2.259-1.626l-.033-.026a2.811,2.811,0,0,0-.269-.2c-.04-.011-.225-.026-.314-.033l-1.738-.138-2.678,2.686a1.53,1.53,0,0,1-1.085.45m3.414-5.6a1.523,1.523,0,0,0-.558.1,1.721,1.721,0,0,0-.6.421l-2.9,2.91a.906.906,0,1,0,1.283,1.279l2.481-2.488a.3.3,0,0,1-.015-.1.311.311,0,0,1,.311-.313h0a.3.3,0,0,1,.11.02.292.292,0,0,1,.028-.044v0a.313.313,0,0,1,.543.078l1.436.113a1.151,1.151,0,0,1,.936.373l-.163.271.2-.243a24.247,24.247,0,0,0,2.2,1.584.906.906,0,0,0,1.217-.228l0,0q.016-.021.03-.044a.906.906,0,0,0-.276-1.253,22.455,22.455,0,0,1-2.037-1.466l.163-.27-.2.244a3.409,3.409,0,0,0-.887-.567,3.444,3.444,0,0,0-1.046-.2l-2.03-.161c-.065-.005-.146-.012-.239-.012" transform="translate(-41.896 -96.34)" fill="#201719"/>
        <path id="패스_6793" data-name="패스 6793" d="M82.575,171.814a11.736,11.736,0,0,1,2.947,2.132,1.219,1.219,0,0,1,.126,1.584,1.248,1.248,0,0,1-.12.14,1.219,1.219,0,0,1-1.724.006,9.3,9.3,0,0,0-2.337-1.69l-.2-.1c-.213-.106-.445-.221-.678-.36a27.141,27.141,0,0,1-2.41,2.258,1.218,1.218,0,1,1-1.554-1.877,24.689,24.689,0,0,0,2.926-2.868,1.219,1.219,0,0,1,.984-.421Z" transform="translate(-44.412 -99.461)" fill="#ffe9dc"/>
        <path id="패스_6794" data-name="패스 6794" d="M76.967,175.938a1.414,1.414,0,0,1-.146-.007,1.531,1.531,0,0,1-.834-2.7,24.347,24.347,0,0,0,2.889-2.832,1.52,1.52,0,0,1,1.236-.528.315.315,0,0,1,.143.043l2.032,1.193a12.067,12.067,0,0,1,3.017,2.185,1.528,1.528,0,0,1,.008,2.166,1.521,1.521,0,0,1-1.081.452h-.006a1.522,1.522,0,0,1-1.078-.444,9,9,0,0,0-2.258-1.634l-.2-.1c-.153-.076-.315-.157-.48-.247a27.436,27.436,0,0,1-2.267,2.106,1.519,1.519,0,0,1-.974.352m3.043-5.447a.9.9,0,0,0-.659.314,25.058,25.058,0,0,1-2.964,2.9.906.906,0,0,0,1.155,1.4,27,27,0,0,0,2.382-2.232.312.312,0,0,1,.388-.054c.219.131.437.239.646.344l.215.108a9.61,9.61,0,0,1,2.415,1.747.9.9,0,0,0,.638.262h0a.9.9,0,0,0,.64-.268.865.865,0,0,0,.089-.1.911.911,0,0,0-.094-1.176A11.453,11.453,0,0,0,82,171.655l-.017-.009Z" transform="translate(-43.974 -99.024)" fill="#201719"/>
        <path id="패스_6795" data-name="패스 6795" d="M86.895,177.3l-1.684-.566c-.662-.337-1.165-.473-1.647-.063a23.6,23.6,0,0,1-2.1,1.59,1.219,1.219,0,1,0,1.361,2.022l.06-.043a8.916,8.916,0,0,0,.338,1.807,8.27,8.27,0,0,1,.255,1.189,3.388,3.388,0,0,1-.055,1.555,1.219,1.219,0,1,0,2.273.88,5.564,5.564,0,0,0,.2-2.721,10.482,10.482,0,0,0-.321-1.533,6.514,6.514,0,0,1-.263-1.365,5.8,5.8,0,0,0-.073-.621,3.689,3.689,0,0,0,.436.081,6.1,6.1,0,0,0,1.108,1.134,1.219,1.219,0,0,0,1.712-.2l.026-.035a1.219,1.219,0,0,0-.23-1.677,3.676,3.676,0,0,1-.768-.824,1.79,1.79,0,0,0-.634-.606" transform="translate(-47.177 -102.845)" fill="#ffe9dc"/>
        <path id="패스_6796" data-name="패스 6796" d="M84.124,186.325a1.53,1.53,0,0,1-1.426-2.084,3.162,3.162,0,0,0,.036-1.406,7.967,7.967,0,0,0-.245-1.14,10.789,10.789,0,0,1-.3-1.4,1.531,1.531,0,0,1-1.33-2.726,23.406,23.406,0,0,0,2.07-1.568,1.648,1.648,0,0,1,1.97.012l1.663.559a.394.394,0,0,1,.049.021,2.1,2.1,0,0,1,.744.705,3.356,3.356,0,0,0,.7.756,1.525,1.525,0,0,1,.289,2.107l-.033.043a1.531,1.531,0,0,1-2.15.256,6.372,6.372,0,0,1-.973-.948c0,.03,0,.061.006.091a6.267,6.267,0,0,0,.253,1.3,10.811,10.811,0,0,1,.329,1.578,5.846,5.846,0,0,1-.222,2.87,1.525,1.525,0,0,1-1.43.978m-1.673-6.836a.313.313,0,0,1,.312.293,8.674,8.674,0,0,0,.328,1.746,8.419,8.419,0,0,1,.264,1.234,3.634,3.634,0,0,1-.074,1.7.906.906,0,1,0,1.69.654,5.285,5.285,0,0,0,.184-2.571,10.048,10.048,0,0,0-.312-1.488,6.815,6.815,0,0,1-.273-1.429,5.257,5.257,0,0,0-.069-.588.314.314,0,0,1,.382-.356,3.351,3.351,0,0,0,.4.074.312.312,0,0,1,.215.123,5.772,5.772,0,0,0,1.051,1.076.906.906,0,1,0,1.12-1.423,4.048,4.048,0,0,1-.832-.895,1.5,1.5,0,0,0-.5-.5l-1.657-.557-.042-.018c-.674-.343-.991-.369-1.3-.1a24.03,24.03,0,0,1-2.125,1.61.906.906,0,1,0,1.012,1.5l.059-.041a.315.315,0,0,1,.176-.054" transform="translate(-46.74 -102.406)" fill="#201719"/>
        <path id="패스_6797" data-name="패스 6797" d="M70.53,179.183s.245-4.5.634-4.375c1.619.505,3.391,2.7,5.414,3.137,1.32.288,2.529,2.15,2.915,3.6A13.869,13.869,0,0,1,79.4,186.3l-.316,4.223-5.281,1.051-.817-4.366a77.226,77.226,0,0,0-2.459-8.023" transform="translate(-41.116 -101.904)" fill="#ffe9dc"/>
        <path id="패스_6798" data-name="패스 6798" d="M98.607,208.5h60.126A30.113,30.113,0,0,1,139.1,235.319a1.773,1.773,0,0,0-1.167,1.659,1.717,1.717,0,0,1-1.717,1.717H121.126a1.718,1.718,0,0,1-1.717-1.717,1.773,1.773,0,0,0-1.167-1.659A30.113,30.113,0,0,1,98.607,208.5" transform="translate(-57.484 -121.547)" fill="#ecd0a4"/>
        <path id="패스_6799" data-name="패스 6799" d="M135.777,238.571H120.688a2.032,2.032,0,0,1-2.03-2.03,1.468,1.468,0,0,0-.963-1.366,30.343,30.343,0,0,1-19.838-27.1.312.312,0,0,1,.312-.327H158.3a.312.312,0,0,1,.312.327,30.343,30.343,0,0,1-19.838,27.1,1.468,1.468,0,0,0-.963,1.366,2.032,2.032,0,0,1-2.03,2.03M98.5,208.377a29.72,29.72,0,0,0,19.413,26.212,2.1,2.1,0,0,1,1.372,1.953,1.406,1.406,0,0,0,1.4,1.4h15.089a1.406,1.406,0,0,0,1.4-1.4,2.1,2.1,0,0,1,1.372-1.953,29.72,29.72,0,0,0,19.413-26.212Z" transform="translate(-57.047 -121.11)" fill="#201719"/>
        <path id="패스_6800" data-name="패스 6800" d="M98.524,199.986c0,3.227,13.475,5.842,30.1,5.842s30.1-2.615,30.1-5.842-13.475-5.842-30.1-5.842-30.1,2.615-30.1,5.842" transform="translate(-57.435 -113.178)" fill="#ecd0a4"/>
        <path id="패스_6801" data-name="패스 6801" d="M128.184,205.7c-14.948,0-30.41-2.3-30.41-6.155s15.462-6.155,30.41-6.155,30.41,2.3,30.41,6.155-15.462,6.155-30.41,6.155m0-11.685c-17.816,0-29.785,2.859-29.785,5.53s11.968,5.53,29.785,5.53,29.785-2.859,29.785-5.53-11.968-5.53-29.785-5.53" transform="translate(-56.998 -112.74)" fill="#201719"/>
        <path id="패스_6802" data-name="패스 6802" d="M129.758,206.151a116.638,116.638,0,0,0,21.127-1.7c6.452-1.252,8.157-2.728,8.157-3.333s-1.7-2.081-8.157-3.333a116.641,116.641,0,0,0-21.127-1.7,116.641,116.641,0,0,0-21.127,1.7c-6.452,1.253-8.157,2.728-8.157,3.333s1.7,2.081,8.157,3.333a116.638,116.638,0,0,0,21.127,1.7" transform="translate(-58.572 -114.313)" fill="#ecd0a4"/>
        <path id="패스_6803" data-name="패스 6803" d="M129.32,206.026a116.961,116.961,0,0,1-21.187-1.7c-6.2-1.2-8.411-2.67-8.411-3.64s2.209-2.437,8.411-3.64a116.907,116.907,0,0,1,21.187-1.7,116.9,116.9,0,0,1,21.187,1.7c6.2,1.2,8.411,2.669,8.411,3.64s-2.209,2.436-8.411,3.64a116.949,116.949,0,0,1-21.187,1.7m0-10.059a116.254,116.254,0,0,0-21.068,1.691c-6.563,1.274-7.9,2.711-7.9,3.026s1.342,1.752,7.9,3.026a116.31,116.31,0,0,0,21.068,1.69,116.3,116.3,0,0,0,21.068-1.69c6.563-1.274,7.9-2.711,7.9-3.026s-1.342-1.753-7.9-3.026a116.246,116.246,0,0,0-21.068-1.691" transform="translate(-58.134 -113.876)" fill="#201719"/>
        <path id="패스_6804" data-name="패스 6804" d="M164.789,275.595c-1.712,0-3.43-.082-5.105-.244a.312.312,0,0,1-.281-.341.309.309,0,0,1,.341-.281,53.416,53.416,0,0,0,8.352.138.313.313,0,1,1,.039.624c-1.1.069-2.227.1-3.345.1" transform="translate(-92.924 -160.154)" fill="#201719"/>
      </g>
    </g>
    <g id="그룹_903" data-name="그룹 903" transform="translate(30.86 53.497)">
      <g id="그룹_902" data-name="그룹 902" clip-path="url(#clip-path-2)">
        <path id="패스_6805" data-name="패스 6805" d="M206.219,188.98c.3-.4.391-.583.034-1.277a6.618,6.618,0,0,0,.388-2.612,4.931,4.931,0,0,0-1.815-2.833,6.449,6.449,0,0,0,.327-3.224,4.708,4.708,0,0,0-1.571-2.707A10.822,10.822,0,0,0,202.3,173.8a3.431,3.431,0,0,0-1.819-1.3,3.393,3.393,0,0,0-2.271.319,10.348,10.348,0,0,0-1.943,1.331,3.643,3.643,0,0,0-3.638-.073,4.946,4.946,0,0,0-2.525,3.057,6.3,6.3,0,0,0-4.146,1.3,5.955,5.955,0,0,0-2.114,3.692s-4.323,7.181,3.543,7.536c0,0,17.44-1.084,18.834-.68" transform="translate(-137.341 -154.008)" fill="#93c288"/>
        <path id="패스_6806" data-name="패스 6806" d="M186.965,189.534c-2.387-.106-3.937-.826-4.64-2.139-1.2-2.233.511-5.353.779-5.816a6.265,6.265,0,0,1,2.217-3.828,6.518,6.518,0,0,1,4.112-1.375,5.266,5.266,0,0,1,2.617-3.022,4.029,4.029,0,0,1,3.758-.033,9.708,9.708,0,0,1,1.827-1.227,3.358,3.358,0,0,1,4.474,1.076,10.77,10.77,0,0,1,1.3,2.531,5.055,5.055,0,0,1,1.618,2.837,6.555,6.555,0,0,1-.276,3.193,4.886,4.886,0,0,1,1.767,2.891,6.647,6.647,0,0,1-.364,2.615,1.173,1.173,0,0,1-.117,1.491.314.314,0,0,1-.339.116c-.983-.287-11.739.257-18.727.692M189.475,177a5.911,5.911,0,0,0-3.763,1.237,5.63,5.63,0,0,0-2,3.5.316.316,0,0,1-.041.113c-.019.032-1.9,3.2-.794,5.253.593,1.1,1.966,1.713,4.083,1.809,1.688-.107,16.3-1,18.679-.709.141-.216.13-.338-.1-.792a.309.309,0,0,1-.021-.233,6.363,6.363,0,0,0,.376-2.49,4.641,4.641,0,0,0-1.72-2.64.312.312,0,0,1-.079-.326,6.068,6.068,0,0,0,.316-3.066,4.416,4.416,0,0,0-1.465-2.525.318.318,0,0,1-.088-.121,10.552,10.552,0,0,0-1.243-2.458,3.139,3.139,0,0,0-1.647-1.19,3.1,3.1,0,0,0-2.059.3,10.152,10.152,0,0,0-1.883,1.293.314.314,0,0,1-.377.01,3.317,3.317,0,0,0-3.319-.046,4.633,4.633,0,0,0-2.362,2.861.328.328,0,0,1-.308.227l-.18,0" transform="translate(-136.902 -153.569)" fill="#201719"/>
        <path id="패스_6807" data-name="패스 6807" d="M121.34,172.979a5.568,5.568,0,0,0-5.34.771,2.053,2.053,0,0,0-1.689.531,6.185,6.185,0,0,0-1.251,1.6s-3.3.771-1.067,5.07l10.736-.932s2.6-3.29,0-4.717c0,0,.93-1.736-1.389-2.321" transform="translate(-95.696 -154.125)" fill="#93c288"/>
        <path id="패스_6808" data-name="패스 6808" d="M111.555,180.825a.313.313,0,0,1-.278-.169c-.843-1.626-1.029-2.976-.552-4.012a2.851,2.851,0,0,1,1.694-1.468,6.16,6.16,0,0,1,1.255-1.575,2.542,2.542,0,0,1,1.818-.628,5.885,5.885,0,0,1,5.5-.73,2.278,2.278,0,0,1,1.653,1.173,1.857,1.857,0,0,1,.03,1.317,2.28,2.28,0,0,1,1.028,1.475c.332,1.637-1.111,3.487-1.172,3.566a.314.314,0,0,1-.219.118l-10.736.933h-.027m3.715-7.245a2.144,2.144,0,0,0-1.2.505,5.916,5.916,0,0,0-1.182,1.522.314.314,0,0,1-.2.141,2.267,2.267,0,0,0-1.4,1.165,3.9,3.9,0,0,0,.448,3.27l10.385-.9a4.464,4.464,0,0,0,.972-2.949,1.732,1.732,0,0,0-.955-1.194.313.313,0,0,1-.125-.422,1.348,1.348,0,0,0,.061-1.051,1.723,1.723,0,0,0-1.251-.819l-.037-.012a5.238,5.238,0,0,0-5.034.727.318.318,0,0,1-.293.049.584.584,0,0,0-.191-.028m7.021,6h0Z" transform="translate(-95.257 -153.687)" fill="#201719"/>
        <path id="패스_6809" data-name="패스 6809" d="M142.447,183.431a3.953,3.953,0,0,0-1.949-3.16,5.063,5.063,0,0,0-.962-3.4,5.317,5.317,0,0,0-2.966-2.007,6.968,6.968,0,0,0-4.965-4.982,4,4,0,0,0-4.112-1.033,4.136,4.136,0,0,0-2.612,2.887,2.986,2.986,0,0,0-2.175,1.372,5.846,5.846,0,0,0-.589,2.279s-2.451.821-1.509,4.453c0,0-3.16,1.166-1.949,5.155l.56,2.512,21.825.974s3.076-2.594,1.4-5.045" transform="translate(-99.872 -151.807)" fill="#93c288"/>
        <path id="패스_6810" data-name="패스 6810" d="M140.6,188.354h-.014l-21.825-.974a.313.313,0,0,1-.292-.244l-.56-2.513c-1.063-3.5,1.12-4.992,1.891-5.4-.69-3.062,1-4.2,1.583-4.491a5.736,5.736,0,0,1,.608-2.224,3.242,3.242,0,0,1,2.2-1.488,4.479,4.479,0,0,1,2.759-2.91,4.319,4.319,0,0,1,4.365,1.042,7.308,7.308,0,0,1,5.064,5.012,5.673,5.673,0,0,1,2.97,2.079,5.4,5.4,0,0,1,1.035,3.421,4.3,4.3,0,0,1,1.93,3.225c1.36,2.1-.383,4.439-1.508,5.388a.314.314,0,0,1-.2.074m-21.572-1.589,21.46.958c.482-.44,2.616-2.561,1.258-4.551a.316.316,0,0,1-.054-.16,3.65,3.65,0,0,0-1.792-2.905.314.314,0,0,1-.156-.3,4.742,4.742,0,0,0-.9-3.191,5.032,5.032,0,0,0-2.789-1.888.313.313,0,0,1-.223-.214,6.7,6.7,0,0,0-4.735-4.767.313.313,0,0,1-.142-.075,3.687,3.687,0,0,0-3.8-.968,3.831,3.831,0,0,0-2.41,2.664.312.312,0,0,1-.256.236,2.675,2.675,0,0,0-1.953,1.22,5.651,5.651,0,0,0-.549,2.159.313.313,0,0,1-.211.26c-.087.03-2.158.791-1.306,4.077a.313.313,0,0,1-.194.372c-.117.043-2.865,1.123-1.758,4.77Z" transform="translate(-99.43 -151.371)" fill="#201719"/>
        <path id="패스_6811" data-name="패스 6811" d="M169.4,181.14s-3.009-.581-2.885,3.858c0,0-6.1,3.451-.993,9.645l15.454-.354s2.775-6.9-1.945-8.623c0,0,.822-2.6-1.3-3.435a6.029,6.029,0,0,0-4.982-1.555,2.188,2.188,0,0,0-1.678-.27,5.426,5.426,0,0,0-1.668.734" transform="translate(-126.162 -158.637)" fill="#93c288"/>
        <path id="패스_6812" data-name="패스 6812" d="M165.083,194.519a.313.313,0,0,1-.241-.114c-1.689-2.048-2.37-4.032-2.024-5.9a6.646,6.646,0,0,1,2.941-4.119,4.238,4.238,0,0,1,1.161-3.418,2.659,2.659,0,0,1,1.975-.592,5.458,5.458,0,0,1,1.672-.716,2.65,2.65,0,0,1,1.821.247,6.362,6.362,0,0,1,5.072,1.616,2.91,2.91,0,0,1,1.506,3.516,4.127,4.127,0,0,1,2.22,2.164c1.227,2.756-.294,6.6-.359,6.763a.312.312,0,0,1-.283.2l-15.454.354Zm3.549-13.527a2.014,2.014,0,0,0-1.312.461,3.813,3.813,0,0,0-.931,3.1.313.313,0,0,1-.158.281,6.2,6.2,0,0,0-2.8,3.794c-.3,1.639.3,3.409,1.8,5.263l15.089-.346c.283-.8,1.269-3.9.3-6.085a3.57,3.57,0,0,0-2.129-1.936.313.313,0,0,1-.191-.387c.03-.1.706-2.333-1.119-3.051a.322.322,0,0,1-.1-.064,5.693,5.693,0,0,0-4.714-1.473.32.32,0,0,1-.259-.073,1.931,1.931,0,0,0-1.412-.2,5.184,5.184,0,0,0-1.571.7.318.318,0,0,1-.216.038,1.669,1.669,0,0,0-.27-.019" transform="translate(-125.724 -158.2)" fill="#201719"/>
        <path id="패스_6813" data-name="패스 6813" d="M119.223,190.725a5.192,5.192,0,0,0-4.08-3.779,4.587,4.587,0,0,0-1.9-2.718,12.636,12.636,0,0,0-3.11-1.465,5.315,5.315,0,0,0-5.765-2.043,4.859,4.859,0,0,0-3.767,1.7,4.521,4.521,0,0,0-.91,3.351,2.31,2.31,0,0,0-1.167,2.152c-.01.8.169,1.584.181,2.379a7.728,7.728,0,0,0,.1,2.1c.2.676.885,1.288,1.561,1.088l21.21.893a5.026,5.026,0,0,0-2.35-3.663" transform="translate(-88.295 -158.736)" fill="#93c288"/>
        <path id="패스_6814" data-name="패스 6814" d="M121.135,194.26h-.013l-21.162-.892a1.719,1.719,0,0,1-1.9-1.313,4.855,4.855,0,0,1-.12-1.6c.008-.2.015-.4.011-.593-.005-.357-.046-.709-.088-1.082a10.309,10.309,0,0,1-.093-1.305,2.615,2.615,0,0,1,1.147-2.313,4.806,4.806,0,0,1,1-3.379,5.165,5.165,0,0,1,3.96-1.817,5.617,5.617,0,0,1,6.015,2.091,12.508,12.508,0,0,1,3.1,1.472,4.957,4.957,0,0,1,1.978,2.7,5.54,5.54,0,0,1,4.089,3.845,5.314,5.314,0,0,1,2.391,3.841.313.313,0,0,1-.312.339m-21.21-1.519h.013l20.826.877a4.662,4.662,0,0,0-2.135-3.063.313.313,0,0,1-.147-.2,4.88,4.88,0,0,0-3.828-3.547.313.313,0,0,1-.256-.251,4.28,4.28,0,0,0-1.775-2.521,12.38,12.38,0,0,0-3.034-1.425.314.314,0,0,1-.146-.111,5,5,0,0,0-5.428-1.925.329.329,0,0,1-.06.01,4.6,4.6,0,0,0-3.544,1.581,4.229,4.229,0,0,0-.846,3.116.313.313,0,0,1-.159.316,1.982,1.982,0,0,0-1.005,1.883,9.566,9.566,0,0,0,.089,1.226c.042.372.086.756.092,1.144,0,.207,0,.417-.012.626a4.319,4.319,0,0,0,.095,1.394c.158.53.691,1.023,1.173.877a.33.33,0,0,1,.088-.013" transform="translate(-87.858 -158.295)" fill="#201719"/>
        <path id="패스_6815" data-name="패스 6815" d="M159.233,182.439a5.493,5.493,0,0,0-4.667-2.674,10.011,10.011,0,0,0-8.544-3.174,7.338,7.338,0,0,0-6.159,6.5s-2.219.025-2.24,3.258c0,0-3.141,3.481,2.629,5.025l6.857,1.565,12.123-.53s6.767-5.536,0-9.974" transform="translate(-110.591 -156.406)" fill="#93c288"/>
        <path id="패스_6816" data-name="패스 6816" d="M146.673,192.817a.3.3,0,0,1-.07-.008l-6.857-1.565c-2.068-.553-3.285-1.42-3.628-2.579a3.356,3.356,0,0,1,.758-2.867c.06-2.7,1.631-3.292,2.275-3.42a7.527,7.527,0,0,1,3.488-5.445,7.8,7.8,0,0,1,2.91-1.093,10.288,10.288,0,0,1,8.727,3.177,5.8,5.8,0,0,1,4.757,2.763c1.952,1.3,2.986,2.823,3.077,4.534.168,3.177-2.981,5.791-3.116,5.9a.312.312,0,0,1-.184.07l-12.123.53h-.014m.006-16.413a9.433,9.433,0,0,0-1.058.059,6.968,6.968,0,0,0-5.884,6.236.313.313,0,0,1-.307.271c-.076,0-1.912.08-1.93,2.948a.314.314,0,0,1-.08.207,2.873,2.873,0,0,0-.7,2.367c.279.935,1.348,1.656,3.178,2.146l6.8,1.553,11.973-.524c.472-.414,2.949-2.72,2.811-5.321-.08-1.518-1.043-2.893-2.86-4.085a.307.307,0,0,1-.1-.115,5.161,5.161,0,0,0-4.4-2.507.315.315,0,0,1-.232-.111,9.661,9.661,0,0,0-7.212-3.124m12.118,15.57h0Z" transform="translate(-110.154 -155.968)" fill="#201719"/>
        <path id="패스_6817" data-name="패스 6817" d="M151.605,193.843a15.876,15.876,0,0,0,5.444,5.234c-1.515.878-4.786-1.146-6.8-4.6-1.806-3.108-1.905-6.325-.9-7.573l.032.025a14.729,14.729,0,0,0,2.219,6.92" transform="translate(-117.553 -162.452)" fill="#5fa035"/>
        <path id="패스_6818" data-name="패스 6818" d="M155.788,199.156c-1.86,0-4.545-2.05-6.241-4.964-1.906-3.278-1.938-6.6-.869-7.927a.313.313,0,0,1,.434-.051.409.409,0,0,1,.153.254,14.38,14.38,0,0,0,2.171,6.772,15.6,15.6,0,0,0,5.331,5.126.313.313,0,0,1,.005.544,1.933,1.933,0,0,1-.985.246m-7.046-11.6a9.073,9.073,0,0,0,1.347,6.323c1.682,2.891,4.2,4.654,5.7,4.654h.037a16.52,16.52,0,0,1-4.914-4.957h0a15.024,15.024,0,0,1-2.166-6.018" transform="translate(-117.121 -162.014)" fill="#201719"/>
        <path id="패스_6819" data-name="패스 6819" d="M157.039,190.451c2.013,3.456,2.421,6.976.907,7.858a15.873,15.873,0,0,1-5.444-5.234,14.732,14.732,0,0,1-2.219-6.919l-.032-.025a1.453,1.453,0,0,1,.4-.349c1.515-.878,4.374,1.209,6.386,4.669" transform="translate(-118.45 -161.684)" fill="#d5df77"/>
        <path id="패스_6820" data-name="패스 6820" d="M157.529,198.188a.312.312,0,0,1-.152-.039,16.264,16.264,0,0,1-5.557-5.341,15.012,15.012,0,0,1-2.262-6.991.261.261,0,0,1-.019-.07.336.336,0,0,1,.05-.245,1.747,1.747,0,0,1,.49-.424c1.689-.981,4.683,1.12,6.813,4.782a13.479,13.479,0,0,1,1.816,5.016c.187,1.616-.176,2.777-1.023,3.27a.31.31,0,0,1-.157.043m-7.346-12.41a14.389,14.389,0,0,0,2.167,6.7,15.684,15.684,0,0,0,5.163,5.031,2.89,2.89,0,0,0,.575-2.559,12.856,12.856,0,0,0-1.736-4.773c-1.888-3.248-4.618-5.333-5.959-4.555a1.117,1.117,0,0,0-.21.159" transform="translate(-118.033 -161.249)" fill="#201719"/>
        <path id="패스_6821" data-name="패스 6821" d="M159.394,193.336c1.337,2.315,1.7,4.605.822,5.115s-2.682-.954-4.019-3.269-1.7-4.605-.822-5.115,2.682.954,4.019,3.269" transform="translate(-121.157 -164.239)" fill="#fff"/>
        <path id="패스_6822" data-name="패스 6822" d="M159.378,198.421a2.781,2.781,0,0,1-1.639-.746,10.265,10.265,0,0,1-2.253-2.78c-1.249-2.164-1.922-4.841-.707-5.542s3.2,1.221,4.447,3.384,1.921,4.841.707,5.542a1.092,1.092,0,0,1-.554.143m-4.036-8.588a.5.5,0,0,0-.251.061c-.626.362-.359,2.444.936,4.688a9.632,9.632,0,0,0,2.106,2.608c.632.515,1.187.717,1.486.547.627-.362.359-2.443-.936-4.688-1.149-1.99-2.591-3.216-3.341-3.216" transform="translate(-120.716 -163.796)" fill="#201719"/>
        <path id="패스_6823" data-name="패스 6823" d="M160.535,197.443c.136.155.191.322.122.374s-.234-.032-.369-.186-.19-.322-.122-.374.234.032.37.186" transform="translate(-124.212 -168.48)" fill="#93c288"/>
        <path id="패스_6824" data-name="패스 6824" d="M159.8,198.918c.2.028.362.121.359.208s-.168.136-.369.108-.362-.121-.359-.208.168-.136.369-.108" transform="translate(-123.798 -169.454)" fill="#93c288"/>
        <path id="패스_6825" data-name="패스 6825" d="M160.826,200.141c.125-.136.285-.2.357-.133s.03.222-.095.358-.284.2-.357.134-.03-.223.094-.359" transform="translate(-124.539 -170.079)" fill="#93c288"/>
        <path id="패스_6826" data-name="패스 6826" d="M161.969,197.642c.08-.166.213-.265.3-.221s.089.214.01.38-.213.266-.3.221-.089-.214-.01-.38" transform="translate(-125.248 -168.579)" fill="#93c288"/>
        <path id="패스_6827" data-name="패스 6827" d="M162.891,199.052c.193-.034.37.009.4.1s-.108.185-.3.219-.37-.009-.4-.1.108-.185.3-.219" transform="translate(-125.641 -169.529)" fill="#93c288"/>
        <path id="패스_6828" data-name="패스 6828" d="M162.733,200.285c.136.155.191.322.122.374s-.234-.032-.369-.187-.19-.322-.122-.374.234.032.37.186" transform="translate(-125.493 -170.137)" fill="#93c288"/>
        <path id="패스_6829" data-name="패스 6829" d="M162.738,190.547a15.878,15.878,0,0,0,3.932,6.447c-1.689.464-4.337-2.326-5.4-6.184-.956-3.465-.233-6.6,1.061-7.552l.025.032a14.736,14.736,0,0,0,.384,7.257" transform="translate(-124.617 -160.329)" fill="#5fa035"/>
        <path id="패스_6830" data-name="패스 6830" d="M165.851,196.92c-1.9,0-4.33-2.876-5.321-6.464-1.008-3.656-.193-6.881,1.179-7.887a.312.312,0,0,1,.434.063.41.41,0,0,1,.082.283,14.387,14.387,0,0,0,.376,7.1,15.6,15.6,0,0,0,3.85,6.315.313.313,0,0,1-.134.528,1.748,1.748,0,0,1-.465.061m-4.411-13.088a9.075,9.075,0,0,0-.308,6.457c.9,3.25,2.911,5.608,4.36,5.96A16.511,16.511,0,0,1,162,190.2h0a15.022,15.022,0,0,1-.563-6.37" transform="translate(-124.179 -159.892)" fill="#201719"/>
        <path id="패스_6831" data-name="패스 6831" d="M169.529,188.765c1.066,3.855.565,7.363-1.124,7.83a15.873,15.873,0,0,1-3.932-6.447,14.735,14.735,0,0,1-.384-7.256l-.025-.032a1.441,1.441,0,0,1,.478-.235c1.688-.464,3.921,2.282,4.987,6.141" transform="translate(-126.352 -159.93)" fill="#d5df77"/>
        <path id="패스_6832" data-name="패스 6832" d="M167.967,196.472a.313.313,0,0,1-.216-.087,16.26,16.26,0,0,1-4.014-6.579,15.019,15.019,0,0,1-.407-7.337.27.27,0,0,1,0-.073.334.334,0,0,1,.111-.223,1.744,1.744,0,0,1,.581-.286c1.877-.513,4.243,2.275,5.371,6.359a13.487,13.487,0,0,1,.48,5.313c-.231,1.61-.878,2.641-1.821,2.9a.322.322,0,0,1-.084.011m-4.024-13.882a14.385,14.385,0,0,0,.391,7.028,15.68,15.68,0,0,0,3.712,6.18,2.891,2.891,0,0,0,1.207-2.329,12.859,12.859,0,0,0-.463-5.057h0c-1-3.621-3.1-6.334-4.6-5.922a1.07,1.07,0,0,0-.244.1" transform="translate(-125.913 -159.494)" fill="#201719"/>
        <path id="패스_6833" data-name="패스 6833" d="M170.963,192.083c.7,2.579.476,4.888-.508,5.156s-2.351-1.606-3.054-4.185-.476-4.888.508-5.156,2.351,1.605,3.054,4.185" transform="translate(-128.209 -163.019)" fill="#fff"/>
        <path id="패스_6834" data-name="패스 6834" d="M169.829,197.138a2.35,2.35,0,0,1-1.693-1.179,10.268,10.268,0,0,1-1.471-3.262c-.657-2.41-.626-5.171.727-5.54s2.781,1.994,3.438,4.4a10.274,10.274,0,0,1,.389,3.558c-.11,1.112-.506,1.816-1.116,1.982a1.05,1.05,0,0,1-.274.037m-2.159-9.392a.443.443,0,0,0-.114.015c-.7.191-.97,2.272-.288,4.772a9.634,9.634,0,0,0,1.373,3.058c.481.659.969,1,1.3.907s.578-.628.658-1.44a9.647,9.647,0,0,0-.369-3.331c-.646-2.369-1.839-3.98-2.556-3.98" transform="translate(-127.775 -162.58)" fill="#201719"/>
        <path id="패스_6835" data-name="패스 6835" d="M171.646,196.1c.092.184.1.36.023.393s-.218-.09-.31-.274-.1-.36-.023-.393.218.09.31.274" transform="translate(-130.711 -167.651)" fill="#93c288"/>
        <path id="패스_6836" data-name="패스 6836" d="M170.551,197.376c.187.078.319.209.294.292s-.2.088-.384.01-.319-.209-.294-.292.2-.088.384-.011" transform="translate(-130.058 -168.527)" fill="#93c288"/>
        <path id="패스_6837" data-name="패스 6837" d="M171.122,198.895c.155-.1.325-.117.38-.038s-.028.223-.183.323-.325.117-.38.038.028-.223.183-.323" transform="translate(-130.5 -169.393)" fill="#93c288"/>
        <path id="패스_6838" data-name="패스 6838" d="M172.846,196.735c.119-.141.274-.2.345-.138s.032.23-.088.37-.274.2-.345.138-.032-.229.088-.37" transform="translate(-131.55 -168.09)" fill="#93c288"/>
        <path id="패스_6839" data-name="패스 6839" d="M173.479,198.349c.195.016.356.1.359.194s-.151.151-.346.135-.356-.1-.359-.194.152-.151.347-.135" transform="translate(-131.788 -169.125)" fill="#93c288"/>
        <path id="패스_6840" data-name="패스 6840" d="M173.048,199.405c.092.184.1.36.023.393s-.218-.091-.31-.274-.1-.36-.023-.393.218.09.31.274" transform="translate(-131.528 -169.579)" fill="#93c288"/>
        <path id="패스_6841" data-name="패스 6841" d="M172.292,189.909a15.877,15.877,0,0,0,2.015,7.278c-1.751-.017-3.534-3.426-3.5-7.428.03-3.594,1.585-6.413,3.09-6.972l.015.038a14.732,14.732,0,0,0-1.619,7.084" transform="translate(-130.432 -160.055)" fill="#5fa035"/>
        <path id="패스_6842" data-name="패스 6842" d="M173.871,197.063h0c-2.028-.02-3.844-3.71-3.811-7.743.032-3.793,1.7-6.671,3.294-7.263a.312.312,0,0,1,.4.18.408.408,0,0,1,0,.294,14.383,14.383,0,0,0-1.584,6.932,15.6,15.6,0,0,0,1.973,7.129.313.313,0,0,1-.27.471M172.748,183.2a9.073,9.073,0,0,0-2.065,6.126c-.028,3.372,1.262,6.191,2.56,6.926a16.534,16.534,0,0,1-1.7-6.77h0a15.032,15.032,0,0,1,1.2-6.281" transform="translate(-129.996 -159.617)" fill="#201719"/>
        <path id="패스_6843" data-name="패스 6843" d="M179.6,189.832c-.03,4-1.473,7.236-3.226,7.223a15.881,15.881,0,0,1-2.015-7.278,14.733,14.733,0,0,1,1.619-7.084l-.015-.038a1.438,1.438,0,0,1,.523-.095c1.751.017,3.147,3.27,3.114,7.272" transform="translate(-132.503 -159.922)" fill="#d5df77"/>
        <path id="패스_6844" data-name="패스 6844" d="M175.952,196.93h-.014a.313.313,0,0,1-.267-.155,16.267,16.267,0,0,1-2.058-7.428,15.017,15.017,0,0,1,1.619-7.168.268.268,0,0,1,.02-.071.334.334,0,0,1,.167-.184,1.863,1.863,0,0,1,.637-.115c1.954.019,3.459,3.351,3.424,7.587a13.491,13.491,0,0,1-.995,5.241c-.66,1.478-1.559,2.292-2.533,2.292m-.163-14.466a14.384,14.384,0,0,0-1.551,6.866,15.687,15.687,0,0,0,1.876,6.961c.649-.1,1.3-.782,1.8-1.908a12.862,12.862,0,0,0,.94-4.991c.03-3.756-1.254-6.942-2.8-6.957a1.1,1.1,0,0,0-.261.029" transform="translate(-132.066 -159.485)" fill="#201719"/>
        <path id="패스_6845" data-name="패스 6845" d="M180.648,193.451c-.03,2.673-.881,4.831-1.9,4.819s-1.821-2.188-1.791-4.861.881-4.831,1.9-4.819,1.821,2.188,1.791,4.861" transform="translate(-134.018 -163.437)" fill="#fff"/>
        <path id="패스_6846" data-name="패스 6846" d="M178.319,198.145h-.012c-.632-.007-1.192-.588-1.579-1.637a10.273,10.273,0,0,1-.521-3.54c.028-2.491.811-5.129,2.2-5.129h.013c1.4.016,2.129,2.68,2.1,5.178a10.262,10.262,0,0,1-.6,3.528c-.407,1.033-.977,1.6-1.6,1.6m.093-9.681c-.722,0-1.55,1.924-1.58,4.51a9.644,9.644,0,0,0,.482,3.318c.282.765.655,1.224,1,1.227h0c.343,0,.725-.45,1.023-1.2a9.633,9.633,0,0,0,.557-3.305c.03-2.591-.758-4.536-1.481-4.545Z" transform="translate(-133.58 -163)" fill="#201719"/>
        <path id="패스_6847" data-name="패스 6847" d="M181.571,197.141c.038.2,0,.374-.086.384s-.185-.146-.223-.349,0-.375.086-.384.185.146.223.349" transform="translate(-136.52 -168.219)" fill="#93c288"/>
        <path id="패스_6848" data-name="패스 6848" d="M180.2,198.083c.159.126.249.288.2.362s-.214.031-.373-.1-.249-.288-.2-.362.214-.031.373.1" transform="translate(-135.684 -168.895)" fill="#93c288"/>
        <path id="패스_6849" data-name="패스 6849" d="M180.23,199.817c.176-.053.345-.023.375.067s-.087.207-.264.26-.344.023-.375-.067.088-.207.264-.26" transform="translate(-135.77 -169.967)" fill="#93c288"/>
        <path id="패스_6850" data-name="패스 6850" d="M182.444,198.2c.153-.1.319-.12.369-.039s-.033.23-.186.332-.319.12-.37.039.032-.23.186-.332" transform="translate(-137.1 -168.986)" fill="#93c288"/>
        <path id="패스_6851" data-name="패스 6851" d="M182.732,199.858c.183.069.314.2.292.284s-.187.1-.37.035-.314-.2-.292-.284.187-.1.37-.035" transform="translate(-137.167 -169.981)" fill="#93c288"/>
        <path id="패스_6852" data-name="패스 6852" d="M182.014,200.705c.038.2,0,.374-.086.384s-.185-.146-.223-.349,0-.375.086-.384.185.146.223.349" transform="translate(-136.778 -170.296)" fill="#93c288"/>
        <path id="패스_6853" data-name="패스 6853" d="M130.48,207.911c-1.774-3.832-3.985-5.585-6.1-3.932-1.825-2.566-3.961-3.047-5.891-1.325-1.516-3.793-3.554-4.15-5.135-1.634-1.359-2.165-2.629-3.524-3.868-2.7-.526.348-1.036,1.085-1.573,1-.59-.094-1.173-1.4-1.727-1.067-1.132.676-2.252,3.483-1.35,7.223,0,0,15.786,2.815,25.642,2.441" transform="translate(-91.784 -168.966)" fill="#93c288"/>
        <path id="패스_6854" data-name="패스 6854" d="M128.207,207.821c-9.79,0-23.667-2.453-23.815-2.48a.314.314,0,0,1-.249-.235c-.567-2.353-.484-6.384,1.494-7.565.528-.316,1.008.185,1.357.552.191.2.43.452.58.475.217.034.531-.252.808-.5a4.766,4.766,0,0,1,.543-.447,1.608,1.608,0,0,1,1.267-.255c.832.179,1.7,1,2.783,2.654a2.623,2.623,0,0,1,2.326-1.346c1.094.1,2.1,1.147,2.928,3.037a3.524,3.524,0,0,1,2.578-.8,5,5,0,0,1,3.255,2.2,2.675,2.675,0,0,1,2.173-.426c1.459.352,2.891,1.964,4.139,4.661a.313.313,0,0,1-.272.444c-.609.023-1.243.034-1.894.034m-23.5-3.06c1.844.319,15.772,2.661,24.9,2.417-1.1-2.23-2.338-3.6-3.514-3.888a2.176,2.176,0,0,0-1.9.5.319.319,0,0,1-.237.063.311.311,0,0,1-.21-.128,4.623,4.623,0,0,0-3-2.194,3.1,3.1,0,0,0-2.426.922.312.312,0,0,1-.5-.117c-.751-1.878-1.663-2.958-2.568-3.04-.854-.073-1.568.749-2.013,1.457a.313.313,0,0,1-.529,0c-.688-1.1-1.71-2.574-2.642-2.776a.989.989,0,0,0-.789.166,4.16,4.16,0,0,0-.468.388c-.382.347-.817.743-1.327.659a1.866,1.866,0,0,1-.935-.662c-.18-.189-.483-.5-.583-.446-1.031.615-2.016,3.264-1.253,6.682" transform="translate(-91.393 -168.529)" fill="#201719"/>
        <path id="패스_6855" data-name="패스 6855" d="M158.794,211.919c-.433-.036.556-2.068.556-2.068.814-2.058,2.225-3.211,3.574-2.921a21.916,21.916,0,0,0,2.085.736,6.443,6.443,0,0,0,2.638-.833,1.655,1.655,0,0,1,2.388,1.131c2.13-2.525,4.969-2.74,7.2-.544.895-1.931,2.544-2.411,3.733-.568,1.693-2.207,4.029-2.5,5.862-.741.811-1.751,2.245-2.34,3.421-1.142.475.006.943.42,1.251,1.1a1.641,1.641,0,0,0,.313.559c.144.117.311.05.464.115a1.128,1.128,0,0,1,.4,1.018c-.016.46-.227.866-.47.906a100.74,100.74,0,0,1-33.415,3.248" transform="translate(-123.366 -172.619)" fill="#93c288"/>
        <path id="패스_6856" data-name="패스 6856" d="M165.335,212.075c-2.275,0-4.615-.085-6.993-.281a.412.412,0,0,1-.329-.21c-.176-.31.035-1.086.629-2.307.867-2.193,2.4-3.413,3.922-3.089a5.05,5.05,0,0,1,1.006.373,3.565,3.565,0,0,0,1.046.358,3.432,3.432,0,0,0,1.713-.48c.255-.118.518-.239.784-.336a2.182,2.182,0,0,1,1.712-.023,1.943,1.943,0,0,1,.875.877,5.3,5.3,0,0,1,3.574-1.792,4.9,4.9,0,0,1,3.444,1.308,2.658,2.658,0,0,1,2-1.526,2.2,2.2,0,0,1,1.835.953,4.447,4.447,0,0,1,3-1.673,3.812,3.812,0,0,1,2.752.944,2.872,2.872,0,0,1,1.883-1.554,2.007,2.007,0,0,1,1.769.611,1.968,1.968,0,0,1,1.4,1.279l.051.117a1.264,1.264,0,0,0,.174.328.473.473,0,0,0,.09.01.864.864,0,0,1,.3.06,1.4,1.4,0,0,1,.591,1.317c-.02.542-.278,1.129-.732,1.2a102.848,102.848,0,0,1-26.5,3.533m-6.756-.889a101.311,101.311,0,0,0,33.113-3.252.743.743,0,0,0,.248-.617.971.971,0,0,0-.212-.719.48.48,0,0,0-.092-.01.727.727,0,0,1-.445-.149,1.424,1.424,0,0,1-.354-.566l-.048-.108c-.253-.563-.625-.915-.97-.92a.311.311,0,0,1-.219-.094,1.464,1.464,0,0,0-1.3-.517,2.5,2.5,0,0,0-1.612,1.571.312.312,0,0,1-.5.094,3.342,3.342,0,0,0-2.582-1.048,4.022,4.022,0,0,0-2.815,1.754.289.289,0,0,1-.261.122.313.313,0,0,1-.25-.143,1.761,1.761,0,0,0-1.514-1.012c-.628.044-1.238.606-1.672,1.542a.313.313,0,0,1-.228.176.318.318,0,0,1-.275-.085,4.371,4.371,0,0,0-3.285-1.415,4.89,4.89,0,0,0-3.455,1.938.313.313,0,0,1-.534-.1,1.609,1.609,0,0,0-.754-.986,1.593,1.593,0,0,0-1.232.044c-.242.089-.483.2-.737.317a3.991,3.991,0,0,1-2.041.534,4.1,4.1,0,0,1-1.239-.41,4.5,4.5,0,0,0-.879-.331c-1.2-.256-2.46.815-3.218,2.73a8.218,8.218,0,0,0-.635,1.656" transform="translate(-122.939 -172.182)" fill="#201719"/>
        <path id="패스_6857" data-name="패스 6857" d="M201.463,208.922a11.871,11.871,0,0,0,2.281-2.428l-.141-.313a2.792,2.792,0,0,1-1.319.148c-.548.724-1.324,1.063-1.737.757s-.307-1.126.223-1.849a1.169,1.169,0,0,1-.147-.667,2.708,2.708,0,0,1-.571-.091,3.841,3.841,0,0,1-.7.329,2.824,2.824,0,0,1-.028.314c-.135.9-.656,1.57-1.163,1.486-.483-.081-.776-.813-.687-1.663a2.9,2.9,0,0,1-1.193-.552c-.223-.024-.436-.037-.654-.055a23.317,23.317,0,0,0,1.093,2.393c.016.49.012.987-.01,1.473a15.462,15.462,0,0,1-.57,3.692q.185.135.384.258a6.5,6.5,0,0,0,3.66.936,35.611,35.611,0,0,0,1.277-4.166" transform="translate(-144.903 -172.617)" fill="#d5df77"/>
        <path id="패스_6858" data-name="패스 6858" d="M199.474,212.969a6.753,6.753,0,0,1-3.552-.99q-.208-.128-.4-.271a.313.313,0,0,1-.115-.339,15.087,15.087,0,0,0,.558-3.617c.021-.465.025-.93.012-1.382l-.025-.05a22.337,22.337,0,0,1-1.051-2.314.313.313,0,0,1,.32-.419l.2.017c.151.012.3.023.459.04a.319.319,0,0,1,.161.065,2.567,2.567,0,0,0,1.065.491.313.313,0,0,1,.245.339c-.076.724.165,1.278.427,1.322a.331.331,0,0,0,.246-.079,1.8,1.8,0,0,0,.557-1.144,2.621,2.621,0,0,0,.026-.28.313.313,0,0,1,.208-.283,3.439,3.439,0,0,0,.639-.3.315.315,0,0,1,.248-.033,2.341,2.341,0,0,0,.5.079.313.313,0,0,1,.289.365.845.845,0,0,0,.121.478.313.313,0,0,1-.029.322c-.442.6-.517,1.243-.289,1.413s.842-.086,1.3-.694a.307.307,0,0,1,.293-.121,2.516,2.516,0,0,0,1.173-.134.315.315,0,0,1,.387.167l.141.312a.313.313,0,0,1-.019.293,11.971,11.971,0,0,1-2.268,2.441,35.675,35.675,0,0,1-1.264,4.1.312.312,0,0,1-.279.2q-.144.006-.287.006m.274-.319h0Zm-3.683-1.323c.061.041.123.081.186.12a6.126,6.126,0,0,0,3.221.9h.056a35.331,35.331,0,0,0,1.192-3.933.31.31,0,0,1,.109-.171,12.585,12.585,0,0,0,2.033-2.086,3.007,3.007,0,0,1-.881.066c-.653.771-1.533,1.069-2.06.679s-.5-1.289.052-2.134a1.684,1.684,0,0,1-.1-.349c-.075-.011-.148-.024-.217-.04a4.285,4.285,0,0,1-.445.215c0,.046-.01.092-.017.139a2.363,2.363,0,0,1-.808,1.558.937.937,0,0,1-.716.19c-.6-.1-.985-.81-.964-1.733a3.164,3.164,0,0,1-.984-.488l-.061-.006c.253.611.552,1.208.843,1.789l.055.112a.313.313,0,0,1,.033.13c.016.49.013.994-.01,1.5a15.911,15.911,0,0,1-.521,3.549" transform="translate(-144.466 -172.179)" fill="#201719"/>
        <path id="패스_6859" data-name="패스 6859" d="M198.736,185.4a6.205,6.205,0,0,1,.255.913,3.206,3.206,0,0,1,.389,2.591,3.146,3.146,0,0,1-1.385,1.806l.013.025a2.956,2.956,0,0,1-2.267.867,2.7,2.7,0,0,1-.571-.091,3.332,3.332,0,0,1-3.768-.087c-.223-.024-.436-.037-.654-.056a6.875,6.875,0,0,1-1.377-.23,2.834,2.834,0,0,1-1.618-1.129,1.638,1.638,0,0,1,.026-1.856,1.556,1.556,0,0,1-.3-2.227,3.015,3.015,0,0,1,2.144-1.089,1.594,1.594,0,0,1,.044-.16,3.347,3.347,0,0,1,1.751-2.15,3.93,3.93,0,0,1,3.432.344,3.8,3.8,0,0,1,2.646.78,3.9,3.9,0,0,1,1.239,1.748" transform="translate(-139.958 -159.756)" fill="#5a9566"/>
        <path id="패스_6860" data-name="패스 6860" d="M192.839,191.922a3.336,3.336,0,0,1-2-.634c-.113-.011-.225-.02-.337-.028l-.225-.018a7.26,7.26,0,0,1-1.438-.241,3.131,3.131,0,0,1-1.795-1.262,2,2,0,0,1-.125-1.958,1.713,1.713,0,0,1-.5-.955,2.028,2.028,0,0,1,.367-1.519,3.244,3.244,0,0,1,2.152-1.189,3.646,3.646,0,0,1,1.908-2.31,4.175,4.175,0,0,1,3.623.309,4.118,4.118,0,0,1,2.781.851,4.243,4.243,0,0,1,1.34,1.883v0a6.314,6.314,0,0,1,.256.9,3.531,3.531,0,0,1,.395,2.8,3.457,3.457,0,0,1-1.415,1.918.262.262,0,0,1-.033.042,3.272,3.272,0,0,1-2.51.963,3.2,3.2,0,0,1-.508-.068,3.985,3.985,0,0,1-1.938.515m-.661-9.775a2.535,2.535,0,0,0-1.069.226,3.048,3.048,0,0,0-1.581,1.954,1.347,1.347,0,0,0-.036.133.331.331,0,0,1-.274.25,2.7,2.7,0,0,0-1.925.962,1.417,1.417,0,0,0-.257,1.046,1.112,1.112,0,0,0,.48.739.314.314,0,0,1,.065.455,1.322,1.322,0,0,0,0,1.493,2.513,2.513,0,0,0,1.442.995,6.564,6.564,0,0,0,1.313.218l.22.018c.146.012.291.023.44.039a.32.32,0,0,1,.161.065,3.025,3.025,0,0,0,3.413.065.312.312,0,0,1,.248-.033,2.339,2.339,0,0,0,.5.079,2.643,2.643,0,0,0,1.958-.706.283.283,0,0,1,.116-.141,2.83,2.83,0,0,0,1.247-1.624,2.9,2.9,0,0,0-.35-2.336.312.312,0,0,1-.043-.105,5.923,5.923,0,0,0-.241-.867,3.582,3.582,0,0,0-1.139-1.612,3.48,3.48,0,0,0-2.426-.715.324.324,0,0,1-.162-.029,5,5,0,0,0-2.1-.569" transform="translate(-139.519 -159.316)" fill="#201719"/>
        <path id="패스_6861" data-name="패스 6861" d="M210.638,197.419a5.1,5.1,0,0,0,.656-1.136,2.818,2.818,0,0,0,1.528-2.324c0-.08,0-.159,0-.244a2.735,2.735,0,0,0-1.307-2.1,2.682,2.682,0,0,0-1.379-1.8,3.872,3.872,0,0,0-2.153-.235,2.242,2.242,0,0,0-2.4.558s-2.917-.167-2.388,2.085c0,0-.908,2.445,1.214,2.836a.993.993,0,0,0,.574.723,1.5,1.5,0,0,0,.318.965,2.435,2.435,0,0,0,1.013.917,2.817,2.817,0,0,0,1.164.128c.234-.013.47-.044.705-.076.235.64,1.176.664,1.807.281a2.526,2.526,0,0,0,.648-.583" transform="translate(-149.201 -163.938)" fill="#5a9566"/>
        <path id="패스_6862" data-name="패스 6862" d="M208.662,198.125a1.587,1.587,0,0,1-.525-.084,1.126,1.126,0,0,1-.566-.423c-.165.021-.339.04-.513.05a3.075,3.075,0,0,1-1.288-.146,2.712,2.712,0,0,1-1.166-1.038,2.135,2.135,0,0,1-.377-.971,1.367,1.367,0,0,1-.508-.626,1.839,1.839,0,0,1-1.2-.867,3.049,3.049,0,0,1-.083-2.25,1.78,1.78,0,0,1,.322-1.575,3.094,3.094,0,0,1,2.249-.808,2.525,2.525,0,0,1,2.569-.562,4.08,4.08,0,0,1,2.256.271,2.983,2.983,0,0,1,1.518,1.882,3.034,3.034,0,0,1,1.348,2.272c0,.1,0,.185,0,.27a3.1,3.1,0,0,1-1.6,2.543,5.145,5.145,0,0,1-.656,1.113h0a2.834,2.834,0,0,1-.729.653,2.063,2.063,0,0,1-1.052.3m-.916-1.158a.312.312,0,0,1,.294.2.466.466,0,0,0,.3.279,1.33,1.33,0,0,0,1.047-.157,2.186,2.186,0,0,0,.568-.513,4.827,4.827,0,0,0,.613-1.067.309.309,0,0,1,.133-.145,2.5,2.5,0,0,0,1.369-2.06c0-.067,0-.141,0-.22a2.423,2.423,0,0,0-1.154-1.842.313.313,0,0,1-.146-.2,2.359,2.359,0,0,0-1.209-1.587,3.544,3.544,0,0,0-1.979-.207.323.323,0,0,1-.145-.016,1.912,1.912,0,0,0-2.045.457.318.318,0,0,1-.264.119,2.631,2.631,0,0,0-1.9.583,1.216,1.216,0,0,0-.171,1.118.315.315,0,0,1-.012.18,2.563,2.563,0,0,0,.011,1.817,1.3,1.3,0,0,0,.967.6.313.313,0,0,1,.256.289s.036.255.416.469a.313.313,0,0,1,.155.325,1.222,1.222,0,0,0,.271.74,2.18,2.18,0,0,0,.856.8,2.5,2.5,0,0,0,1.038.111c.231-.013.472-.045.685-.074l.042,0m2.455.011h0Z" transform="translate(-148.765 -163.498)" fill="#201719"/>
        <path id="패스_6863" data-name="패스 6863" d="M207.608,194.992a.291.291,0,0,1-.06-.006.312.312,0,0,1-.248-.366.937.937,0,0,1,.65-.714.973.973,0,0,1,.69.058,1.882,1.882,0,0,1,.957-.359,1.449,1.449,0,0,1,1.092.411.313.313,0,0,1-.439.447.818.818,0,0,0-.617-.233,1.149,1.149,0,0,0-.708.322.314.314,0,0,1-.225.123.32.32,0,0,1-.241-.087.356.356,0,0,0-.331-.083.316.316,0,0,0-.214.234.312.312,0,0,1-.307.254" transform="translate(-151.704 -166.359)" fill="#201719"/>
        <path id="패스_6864" data-name="패스 6864" d="M211.88,201.325a.964.964,0,0,1-.125-.008,1.108,1.108,0,0,1-.869-.647.313.313,0,1,1,.574-.249.486.486,0,0,0,.37.275.465.465,0,0,0,.405-.173.313.313,0,0,1,.508.365,1.074,1.074,0,0,1-.865.437" transform="translate(-153.782 -170.225)" fill="#201719"/>
        <path id="패스_6865" data-name="패스 6865" d="M220.025,199.627a.313.313,0,0,1-.138-.594.488.488,0,0,0,.221-.365,1.7,1.7,0,0,0-.013-.314,1.531,1.531,0,0,1,.03-.666.968.968,0,0,0,.08-.576c-.034-.125-.159-.24-.24-.226a.308.308,0,0,1-.342-.28.312.312,0,0,1,.28-.342.9.9,0,0,1,.906.687,1.6,1.6,0,0,1-.1.955,1.4,1.4,0,0,0,.006.388,1.98,1.98,0,0,1,.009.47,1.093,1.093,0,0,1-.565.832.311.311,0,0,1-.137.032" transform="translate(-158.89 -167.908)" fill="#201719"/>
        <path id="패스_6866" data-name="패스 6866" d="M194.469,188.671a.309.309,0,0,1-.155-.042.313.313,0,0,1-.115-.427,2.559,2.559,0,0,1,1.141-1.2,1.421,1.421,0,0,1,.635-.651,3.359,3.359,0,0,1,.907-.3.313.313,0,1,1,.132.612,2.81,2.81,0,0,0-.741.233.753.753,0,0,0-.391.438.314.314,0,0,1-.247.23c-.39.071-.719.643-.895.95a.312.312,0,0,1-.271.157" transform="translate(-144.045 -161.953)" fill="#201719"/>
        <path id="패스_6867" data-name="패스 6867" d="M197.17,196.2a.307.307,0,0,1-.119-.024.939.939,0,0,1-.554-.657.9.9,0,0,1,.239-.824.313.313,0,0,1,.442.442.28.28,0,0,0-.071.248.314.314,0,0,0,.181.213.313.313,0,0,1-.119.6" transform="translate(-145.397 -166.945)" fill="#201719"/>
        <path id="패스_6868" data-name="패스 6868" d="M193.829,198.609a.857.857,0,0,1-.516-.18.822.822,0,0,1-.337-.6,1.045,1.045,0,0,1-.621-.437,1,1,0,0,1-.159-.812.313.313,0,0,1,.606.155.387.387,0,0,0,.07.3.417.417,0,0,0,.28.186l.161.026a.314.314,0,0,1,.259.269l.028.216a.307.307,0,0,1,0,.052.2.2,0,0,0,.09.148.206.206,0,0,0,.175.047.313.313,0,0,1,.191.6.739.739,0,0,1-.228.035" transform="translate(-142.885 -167.956)" fill="#201719"/>
        <path id="패스_6869" data-name="패스 6869" d="M130.224,190.921a11.959,11.959,0,0,0,.769-3.193l-.266-.2a2.7,2.7,0,0,1-1.037.765c-.118.888-.609,1.555-1.1,1.491s-.788-.821-.684-1.7a1.144,1.144,0,0,1-.437-.5,2.547,2.547,0,0,1-.522.2,3.771,3.771,0,0,1-.429.62,2.928,2.928,0,0,1,.124.284c.313.844.19,1.668-.276,1.841-.443.165-1.033-.324-1.36-1.1a2.724,2.724,0,0,1-1.26.1c-.2.087-.383.178-.575.268a22.34,22.34,0,0,0,2.044,1.531c.244.414.475.844.685,1.273a15.5,15.5,0,0,1,1.262,3.453q.218.028.443.036a6.129,6.129,0,0,0,3.511-.964,35.958,35.958,0,0,0-.892-4.2" transform="translate(-102.663 -162.818)" fill="#d5df77"/>
        <path id="패스_6870" data-name="패스 6870" d="M127.421,195.971c-.09,0-.179,0-.268-.007-.157-.006-.313-.019-.468-.038a.313.313,0,0,1-.266-.242,15.134,15.134,0,0,0-1.237-3.383c-.2-.409-.415-.809-.64-1.194l-.047-.033a21.616,21.616,0,0,1-1.968-1.481.313.313,0,0,1,.075-.518l.2-.092c.126-.06.254-.121.386-.179a.3.3,0,0,1,.176-.022,2.4,2.4,0,0,0,1.115-.092.314.314,0,0,1,.383.177c.29.688.757,1,.963.927.11-.04.2-.2.229-.422a2.146,2.146,0,0,0-.138-1.018,2.718,2.718,0,0,0-.111-.253.314.314,0,0,1,.042-.342,3.5,3.5,0,0,0,.394-.569.313.313,0,0,1,.2-.152,2.219,2.219,0,0,0,.456-.174.314.314,0,0,1,.435.178.87.87,0,0,0,.323.35.312.312,0,0,1,.13.292c-.094.792.178,1.322.413,1.352s.644-.43.75-1.222a.312.312,0,0,1,.194-.249,2.4,2.4,0,0,0,.917-.679.314.314,0,0,1,.425-.045l.265.2a.311.311,0,0,1,.124.261,12.1,12.1,0,0,1-.752,3.2,36.075,36.075,0,0,1,.873,4.14.314.314,0,0,1-.142.311,6.469,6.469,0,0,1-3.425,1.019m-.443-.644c.067.006.134.01.2.013a5.78,5.78,0,0,0,3.158-.81,35.8,35.8,0,0,0-.854-3.963.316.316,0,0,1,.011-.2,12.775,12.775,0,0,0,.72-2.756,2.928,2.928,0,0,1-.681.46c-.186,1-.782,1.662-1.422,1.584s-1.035-.871-.97-1.867a1.656,1.656,0,0,1-.241-.245c-.063.024-.124.046-.184.065a4.181,4.181,0,0,1-.271.4c.018.042.035.085.051.128a2.752,2.752,0,0,1,.171,1.328,1.068,1.068,0,0,1-.631.916c-.556.2-1.219-.217-1.639-1.022a2.956,2.956,0,0,1-1.044.055l-.045.02c.5.4,1.028.769,1.543,1.127l.1.072a.325.325,0,0,1,.091.1c.245.416.48.851.7,1.294a15.985,15.985,0,0,1,1.235,3.3" transform="translate(-102.226 -162.381)" fill="#201719"/>
        <path id="패스_6871" data-name="패스 6871" d="M119.638,169.771a6.075,6.075,0,0,1,.644.663,3.136,3.136,0,0,1,1.236,4.266l.022.015a2.9,2.9,0,0,1-1.493,1.843,2.526,2.526,0,0,1-.522.2,3.184,3.184,0,0,1-3.2,1.748c-.2.087-.383.179-.575.268a6.493,6.493,0,0,1-1.262.468,2.662,2.662,0,0,1-1.888-.189,1.627,1.627,0,0,1-.853-1.61,1.531,1.531,0,0,1-1.3-1.772,2.981,2.981,0,0,1,1.285-1.974,1.64,1.64,0,0,1-.039-.16,3.379,3.379,0,0,1,.455-2.7,3.744,3.744,0,0,1,3.04-1.363,3.581,3.581,0,0,1,2.586-.609,3.709,3.709,0,0,1,1.863.905" transform="translate(-95.239 -151.915)" fill="#5a9566"/>
        <path id="패스_6872" data-name="패스 6872" d="M113.312,179.2a2.661,2.661,0,0,1-1.3-.316,1.981,1.981,0,0,1-1.031-1.626,1.65,1.65,0,0,1-.857-.562,2.058,2.058,0,0,1-.422-1.5,3.216,3.216,0,0,1,1.244-2.064,3.674,3.674,0,0,1,.511-2.911,3.988,3.988,0,0,1,3.189-1.491,3.9,3.9,0,0,1,2.742-.612,4.038,4.038,0,0,1,2.018.977h0a6.193,6.193,0,0,1,.641.653,3.448,3.448,0,0,1,1.368,4.552.246.246,0,0,1-.008.052,3.211,3.211,0,0,1-1.654,2.046,3.062,3.062,0,0,1-.456.186,3.5,3.5,0,0,1-3.363,1.8c-.1.047-.2.094-.3.142l-.184.088a6.894,6.894,0,0,1-1.324.489,3.614,3.614,0,0,1-.811.1m3.494-10.5a3.263,3.263,0,0,0-1.874.592.318.318,0,0,1-.158.056,3.476,3.476,0,0,0-2.808,1.233,3.068,3.068,0,0,0-.4,2.448,1.46,1.46,0,0,0,.034.143.313.313,0,0,1-.116.337,2.668,2.668,0,0,0-1.159,1.757,1.423,1.423,0,0,0,.287,1.038,1.048,1.048,0,0,0,.731.388.314.314,0,0,1,.279.364,1.313,1.313,0,0,0,.7,1.285,2.341,2.341,0,0,0,1.665.157,6.2,6.2,0,0,0,1.2-.446l.18-.085c.132-.063.263-.125.4-.186a.308.308,0,0,1,.176-.022,2.874,2.874,0,0,0,2.877-1.591.315.315,0,0,1,.2-.152,2.22,2.22,0,0,0,.457-.174,2.587,2.587,0,0,0,1.3-1.552.283.283,0,0,1,.031-.176,2.823,2.823,0,0,0-1.111-3.841.315.315,0,0,1-.089-.072,5.71,5.71,0,0,0-.611-.629,3.38,3.38,0,0,0-1.706-.833,3.144,3.144,0,0,0-.485-.037" transform="translate(-94.803 -151.478)" fill="#201719"/>
        <path id="패스_6873" data-name="패스 6873" d="M133.884,175.371a5.153,5.153,0,0,0,.014-1.295,2.845,2.845,0,0,0,.187-2.74c-.037-.069-.074-.138-.118-.209a2.616,2.616,0,0,0-2.084-1.172,2.546,2.546,0,0,0-2-.88,3.677,3.677,0,0,0-1.916.839,2.169,2.169,0,0,0-1.746,1.639s-2.525,1.267-1.021,2.95c0,0,.391,2.544,2.354,1.853a.947.947,0,0,0,.822.345,1.462,1.462,0,0,0,.722.677,2.3,2.3,0,0,0,1.281.3,2.679,2.679,0,0,0,1.036-.453c.191-.124.373-.265.556-.407.5.437,1.3,0,1.648-.632a2.539,2.539,0,0,0,.269-.815" transform="translate(-103.565 -152.058)" fill="#5a9566"/>
        <path id="패스_6874" data-name="패스 6874" d="M129.77,177.567a2.889,2.889,0,0,1-1.259-.348,2.078,2.078,0,0,1-.774-.653,1.314,1.314,0,0,1-.717-.291,1.745,1.745,0,0,1-1.4-.158,3,3,0,0,1-1.152-1.911,1.787,1.787,0,0,1-.471-1.519,3.042,3.042,0,0,1,1.5-1.775,2.451,2.451,0,0,1,1.894-1.728,3.887,3.887,0,0,1,2.026-.859,2.833,2.833,0,0,1,2.168.886,2.918,2.918,0,0,1,2.2,1.308c.048.078.085.147.123.215a3.134,3.134,0,0,1-.133,2.975,5.229,5.229,0,0,1-.026,1.275h0a2.856,2.856,0,0,1-.3.915,1.882,1.882,0,0,1-1.238.951,1.08,1.08,0,0,1-.669-.088c-.125.1-.26.194-.4.285a2.942,2.942,0,0,1-1.155.5,1.268,1.268,0,0,1-.221.018m-2.657-1.96a.313.313,0,0,1,.266.148.688.688,0,0,0,.557.2.312.312,0,0,1,.295.21,1.224,1.224,0,0,0,.572.5,2.053,2.053,0,0,0,1.081.269,2.358,2.358,0,0,0,.916-.4c.186-.122.362-.259.538-.395a.312.312,0,0,1,.4.012.417.417,0,0,0,.368.09,1.274,1.274,0,0,0,.8-.637,2.212,2.212,0,0,0,.235-.716,4.911,4.911,0,0,0,.011-1.215.314.314,0,0,1,.043-.188,2.525,2.525,0,0,0,.177-2.438c-.036-.067-.069-.127-.106-.188a2.3,2.3,0,0,0-1.824-1.023.315.315,0,0,1-.226-.1,2.216,2.216,0,0,0-1.748-.777,3.345,3.345,0,0,0-1.748.776.321.321,0,0,1-.136.059c-.053.01-1.322.251-1.491,1.377a.312.312,0,0,1-.168.233c-.011.005-1.155.593-1.31,1.41a1.214,1.214,0,0,0,.382,1.051.316.316,0,0,1,.075.161,2.529,2.529,0,0,0,.875,1.564,1.2,1.2,0,0,0,1.067.042.321.321,0,0,1,.1-.018m6.333-.672h0Z" transform="translate(-103.127 -151.621)" fill="#201719"/>
        <path id="패스_6875" data-name="패스 6875" d="M129.263,177.305a.313.313,0,0,1-.3-.216.929.929,0,0,1,.816-1.216,1.853,1.853,0,0,1,.633-.77,1.4,1.4,0,0,1,1.125-.176.313.313,0,0,1-.168.6.761.761,0,0,0-.612.1,1.131,1.131,0,0,0-.44.619.312.312,0,0,1-.39.261.306.306,0,0,0-.369.39.313.313,0,0,1-.3.41" transform="translate(-106.015 -155.444)" fill="#201719"/>
        <path id="패스_6876" data-name="패스 6876" d="M135.01,181.68a1.061,1.061,0,0,1-.647-.219.313.313,0,1,1,.385-.494.42.42,0,0,0,.676-.287.313.313,0,1,1,.622.068,1.061,1.061,0,0,1-.633.851,1.028,1.028,0,0,1-.4.081" transform="translate(-109.117 -158.663)" fill="#201719"/>
        <path id="패스_6877" data-name="패스 6877" d="M141.4,176.779a.313.313,0,0,1-.259-.488.487.487,0,0,0,.013-.423,1.7,1.7,0,0,0-.16-.263,1.539,1.539,0,0,1-.289-.588.973.973,0,0,0-.2-.534c-.081-.084-.223-.124-.286-.077a.313.313,0,0,1-.366-.508.869.869,0,0,1,1.106.154,1.593,1.593,0,0,1,.367.87,1.411,1.411,0,0,0,.189.331,1.982,1.982,0,0,1,.229.4,1.1,1.1,0,0,1-.082.988.312.312,0,0,1-.26.138" transform="translate(-112.31 -154.793)" fill="#201719"/>
        <path id="패스_6878" data-name="패스 6878" d="M116.122,178.14h0a.313.313,0,0,1-.309-.316,2.5,2.5,0,0,1,.39-1.589,1.432,1.432,0,0,1,.226-.867,3.242,3.242,0,0,1,.623-.695.313.313,0,0,1,.421.463,2.718,2.718,0,0,0-.511.559.764.764,0,0,0-.121.568.314.314,0,0,1-.1.316c-.292.248-.3.9-.3,1.251a.313.313,0,0,1-.313.31" transform="translate(-98.371 -155.278)" fill="#201719"/>
        <path id="패스_6879" data-name="패스 6879" d="M120.72,184.883a.9.9,0,0,1-.87-1.132.313.313,0,0,1,.6.164.272.272,0,0,0,.3.341.312.312,0,1,1,.076.62.745.745,0,0,1-.106.007" transform="translate(-100.709 -160.482)" fill="#201719"/>
        <path id="패스_6880" data-name="패스 6880" d="M118.723,188.731a.886.886,0,0,1-.119-.008.8.8,0,0,1-.576-.355,1,1,0,0,1-.717-.076.991.991,0,0,1-.531-.63.313.313,0,1,1,.605-.158.4.4,0,0,0,.505.249l.147-.055a.316.316,0,0,1,.363.11l.124.172a.362.362,0,0,1,.027.044.179.179,0,0,0,.137.08.175.175,0,0,0,.153-.04.313.313,0,0,1,.464.42.779.779,0,0,1-.583.249" transform="translate(-98.931 -162.668)" fill="#201719"/>
        <path id="패스_6881" data-name="패스 6881" d="M134.537,200.024a4.077,4.077,0,1,1-5.718.739,4.077,4.077,0,0,1,5.718-.739" transform="translate(-105.46 -169.608)" fill="#ff7768"/>
        <path id="패스_6882" data-name="패스 6882" d="M131.6,207.2a4.389,4.389,0,1,1,3.481-1.707A4.368,4.368,0,0,1,131.6,207.2m.012-8.154a3.81,3.81,0,0,0-.49.032,3.75,3.75,0,1,0,.49-.032" transform="translate(-105.023 -169.17)" fill="#201719"/>
        <path id="패스_6883" data-name="패스 6883" d="M129.907,200.29a.755.755,0,0,0-.334-.25c-.123-.069-.246-.191-.218-.33a.271.271,0,0,1,.347-.163.783.783,0,0,1,.335.261c.1-.183-.119-.463.042-.593a.213.213,0,0,1,.3.1.615.615,0,0,1,.025.357l.536-.481c.05-.045.116-.093.178-.067.077.033.07.144.045.225a2.732,2.732,0,0,1-.293.646.7.7,0,0,1,.61.092,1.641,1.641,0,0,1-.912.417.347.347,0,0,1,.137.4.33.33,0,0,1-.375.2.314.314,0,0,1-.222-.355,1.171,1.171,0,0,1-.968.407,1.344,1.344,0,0,1,.759-.861" transform="translate(-106.143 -169.572)" fill="#5a9566"/>
        <path id="패스_6884" data-name="패스 6884" d="M128.7,201.029a.312.312,0,0,1-.3-.4,1.649,1.649,0,0,1,.512-.8.611.611,0,0,1-.3-.624.513.513,0,0,1,.246-.339.625.625,0,0,1,.424-.078.453.453,0,0,1,.163-.258.474.474,0,0,1,.4-.091.558.558,0,0,1,.317.2l.135-.121a.46.46,0,0,1,.509-.122.468.468,0,0,1,.223.6c-.026.085-.056.168-.089.251a1,1,0,0,1,.287.138.313.313,0,0,1,.032.487,1.958,1.958,0,0,1-.658.4.631.631,0,0,1-.036.307.639.639,0,0,1-.745.387.6.6,0,0,1-.261-.145,1.776,1.776,0,0,1-.847.206ZM129.744,200a.282.282,0,0,1,.054.018.319.319,0,0,1,.038.019.268.268,0,0,1,.009-.054.307.307,0,0,1,.253-.235l.085-.013a.19.19,0,0,0-.312-.211.315.315,0,0,1-.151.131c.01.014.018.029.027.045a.313.313,0,0,1,0,.3" transform="translate(-105.707 -169.135)" fill="#201719"/>
        <path id="패스_6885" data-name="패스 6885" d="M150.6,208.621a4.077,4.077,0,1,1-4.608-3.466,4.077,4.077,0,0,1,4.608,3.466" transform="translate(-113.921 -173.07)" fill="#ff7768"/>
        <path id="패스_6886" data-name="패스 6886" d="M146.12,213.144a4.4,4.4,0,1,1,.618-.044,4.4,4.4,0,0,1-.618.044m.006-8.155a3.8,3.8,0,0,0-.53.037,3.764,3.764,0,1,0,.53-.037" transform="translate(-113.484 -172.632)" fill="#201719"/>
        <path id="패스_6887" data-name="패스 6887" d="M150.709,203.976a.76.76,0,0,0-.064-.412.347.347,0,0,1,.075-.388.271.271,0,0,1,.362.125.785.785,0,0,1,.058.422c.2-.065.238-.415.444-.4a.213.213,0,0,1,.146.28.616.616,0,0,1-.231.273l.72.03c.067,0,.148.015.174.077.032.078-.051.152-.125.192a2.749,2.749,0,0,1-.661.257.7.7,0,0,1,.373.492,1.64,1.64,0,0,1-.944-.338.348.348,0,0,1-.184.386.33.33,0,0,1-.406-.122.314.314,0,0,1,.089-.41,1.171,1.171,0,0,1-.977-.385,1.343,1.343,0,0,1,1.145-.086" transform="translate(-118.046 -171.921)" fill="#5a9566"/>
        <path id="패스_6888" data-name="패스 6888" d="M150.284,204.879a.635.635,0,0,1-.543-.3.6.6,0,0,1-.085-.285,1.769,1.769,0,0,1-.75-.444.313.313,0,0,1,.059-.5,1.646,1.646,0,0,1,.925-.215.613.613,0,0,1,.219-.658.517.517,0,0,1,.414-.071.635.635,0,0,1,.357.24.441.441,0,0,1,.3-.071.474.474,0,0,1,.35.214.558.558,0,0,1,.089.36l.181.008a.459.459,0,0,1,.449.268.466.466,0,0,1-.262.588c-.078.043-.158.083-.24.118a1,1,0,0,1,.108.3.314.314,0,0,1-.317.371,1.958,1.958,0,0,1-.748-.176.632.632,0,0,1-.24.2.624.624,0,0,1-.261.056m.332-1.032a.281.281,0,0,1,.173.058c.023.018.046.035.07.051a.19.19,0,0,0-.076-.369.309.309,0,0,1-.2-.012c0,.017-.008.034-.012.051a.313.313,0,0,1-.211.212.326.326,0,0,1,.026.051.215.215,0,0,1,.013.037.381.381,0,0,1,.043-.03.342.342,0,0,1,.174-.049" transform="translate(-117.608 -171.484)" fill="#201719"/>
      </g>
    </g>
    <g id="그룹_905" data-name="그룹 905">
      <g id="그룹_904" data-name="그룹 904" clip-path="url(#clip-path)">
        <path id="패스_6890" data-name="패스 6890" d="M129.32,213.056a116.961,116.961,0,0,1-21.187-1.7c-6.2-1.2-8.411-2.67-8.411-3.641a.313.313,0,1,1,.626,0c0,.315,1.342,1.752,7.9,3.026a116.308,116.308,0,0,0,21.068,1.69,116.3,116.3,0,0,0,21.068-1.69c6.563-1.274,7.9-2.711,7.9-3.026a.313.313,0,0,1,.626,0c0,.971-2.209,2.437-8.411,3.641a116.949,116.949,0,0,1-21.187,1.7" transform="translate(-58.134 -120.906)" fill="#201719"/>
        <path id="패스_6891" data-name="패스 6891" d="M210.677,253.132s2.909,8.042-3.746,10.407a8.862,8.862,0,0,1-2.872.481l-19.226.213s-.435-6.276-1.365-7.892c0,0,18.05-4.281,24.163-3.21" transform="translate(-106.954 -147.465)" fill="#ffe9dc"/>
        <path id="패스_6892" data-name="패스 6892" d="M184.4,264.107a.313.313,0,0,1-.312-.291c0-.062-.44-6.223-1.325-7.758a.312.312,0,0,1,.2-.46c.739-.175,18.182-4.285,24.289-3.213a.313.313,0,1,1-.108.616c-5.489-.961-21.036,2.515-23.659,3.118.731,1.8,1.113,6.171,1.206,7.359l18.933-.21a8.55,8.55,0,0,0,2.77-.463,5.86,5.86,0,0,0,3.517-3.024c1.435-3.04.053-6.942.04-6.981a.313.313,0,0,1,.588-.213c.061.169,1.483,4.188-.062,7.461a6.465,6.465,0,0,1-3.873,3.347,9.164,9.164,0,0,1-2.973.5l-19.226.213Z" transform="translate(-106.517 -147.026)" fill="#201719"/>
        <path id="패스_6893" data-name="패스 6893" d="M173.1,261.277l1.25,7.55-.916.112-.252.124-8.84.565V263.9Z" transform="translate(-95.806 -152.313)" fill="#ffe9dc"/>
        <path id="패스_6894" data-name="패스 6894" d="M162.682,275.629a14.376,14.376,0,0,1-7.406,1.326,39.076,39.076,0,0,1-6.239-.21c-.968-.725-1.937-1.451-2.839-2.256a2.557,2.557,0,0,1-.6-.69.942.942,0,0,1-.034-.881.912.912,0,0,1,.89-.4,1.949,1.949,0,0,1,.932.42,32.009,32.009,0,0,0,2.578,2.261,15.215,15.215,0,0,1,3-.143" transform="translate(-84.803 -158.862)" fill="#ffe9dc"/>
        <path id="패스_6895" data-name="패스 6895" d="M156.007,276.89a11.3,11.3,0,0,1-1.178-.058,39.522,39.522,0,0,1-6.265-.213.315.315,0,0,1-.153-.06c-.963-.722-1.951-1.461-2.86-2.273a2.855,2.855,0,0,1-.669-.778,1.239,1.239,0,0,1-.029-1.18,1.221,1.221,0,0,1,1.195-.56,2.269,2.269,0,0,1,1.086.48,9.758,9.758,0,0,1,1.075.982,8.506,8.506,0,0,0,1.386,1.2,15.451,15.451,0,0,1,2.948-.129.313.313,0,0,1,.3.329.306.306,0,0,1-.329.3,14.967,14.967,0,0,0-2.94.14.318.318,0,0,1-.21-.043,8.538,8.538,0,0,1-1.6-1.357,9.15,9.15,0,0,0-1-.92,1.623,1.623,0,0,0-.777-.36.594.594,0,0,0-.586.244.64.64,0,0,0,.038.583,2.309,2.309,0,0,0,.531.6c.87.777,1.824,1.494,2.75,2.188a38.8,38.8,0,0,0,6.1.2.239.239,0,0,1,.049,0,14.111,14.111,0,0,0,7.221-1.288.313.313,0,0,1,.3.548,14.32,14.32,0,0,1-6.388,1.423" transform="translate(-84.364 -158.425)" fill="#201719"/>
        <path id="패스_6896" data-name="패스 6896" d="M152.3,271.151c-1.46,0-2.92,0-4.464.066a40.5,40.5,0,0,1-4.2-3.878,2.6,2.6,0,0,1-.731-1.249.977.977,0,0,1,.673-1.138,1.433,1.433,0,0,1,1.067.445c1.355,1.094,2.66,2.25,3.964,3.527a16.717,16.717,0,0,1,3.432.234" transform="translate(-83.3 -154.449)" fill="#ffe9dc"/>
        <path id="패스_6897" data-name="패스 6897" d="M147.4,271.094a.312.312,0,0,1-.2-.073,40.965,40.965,0,0,1-4.23-3.909,2.887,2.887,0,0,1-.807-1.408,1.279,1.279,0,0,1,.929-1.5,1.74,1.74,0,0,1,1.316.51c1.364,1.1,2.638,2.231,3.891,3.453a17.143,17.143,0,0,1,3.362.242.314.314,0,0,1,.255.362.317.317,0,0,1-.362.255,16.324,16.324,0,0,0-3.368-.229.319.319,0,0,1-.23-.089c-1.27-1.244-2.56-2.391-3.942-3.507-.257-.208-.551-.423-.817-.38-.3.051-.469.46-.417.779a2.325,2.325,0,0,0,.655,1.09,39.564,39.564,0,0,0,4.074,3.77c1.508-.064,2.955-.061,4.357-.061a.313.313,0,0,1,0,.626h0c-1.431,0-2.912,0-4.45.066H147.4" transform="translate(-82.863 -154.013)" fill="#201719"/>
        <path id="패스_6898" data-name="패스 6898" d="M161.563,256.685c-1.079-1.1-4.365-2.339-5.865-2.675a41.542,41.542,0,0,1-4.5-1c-.47-.161-1.048-.338-1.415,0a.857.857,0,0,0-.175.9,1.927,1.927,0,0,0,.581.77,5.446,5.446,0,0,0,3.077,1.335l2.373,1.416c-1.547-.241-3.514-.222-5.073-.372-1.061-.94-1.989-1.742-2.917-2.544a3.161,3.161,0,0,0-1.329-.808,1.086,1.086,0,0,0-1.284.624c-.15.52.25,1.024.625,1.413q1.239,1.286,2.555,2.5c.625.574,1.141,1.159,1.8,1.687.761.606,2.155.835,4.2.671" transform="translate(-84.532 -147.382)" fill="#ffe9dc"/>
        <path id="패스_6899" data-name="패스 6899" d="M152.571,260.527a5.09,5.09,0,0,1-3.183-.791,14.585,14.585,0,0,1-1.172-1.076c-.211-.208-.423-.418-.65-.627-.876-.805-1.74-1.649-2.568-2.508a1.85,1.85,0,0,1-.7-1.717,1.392,1.392,0,0,1,1.65-.844,3.464,3.464,0,0,1,1.468.877l.085.074c.878.759,1.76,1.522,2.758,2.405.591.053,1.231.084,1.906.116.548.026,1.105.053,1.646.093l-1.084-.646a5.757,5.757,0,0,1-3.184-1.405,2.224,2.224,0,0,1-.669-.9,1.165,1.165,0,0,1,.259-1.238c.521-.475,1.276-.216,1.727-.061a20.21,20.21,0,0,0,2.92.686c.507.093,1.032.189,1.546.3,1.438.321,4.865,1.587,6.02,2.76a.313.313,0,0,1-.445.439c-1.028-1.043-4.282-2.269-5.711-2.589-.5-.113-1.02-.207-1.521-.3a20.765,20.765,0,0,1-3.011-.71c-.432-.148-.874-.275-1.1-.068a.556.556,0,0,0-.09.569,1.664,1.664,0,0,0,.493.639,5.128,5.128,0,0,0,2.9,1.258.315.315,0,0,1,.131.043l2.373,1.416a.313.313,0,0,1-.208.578,30.064,30.064,0,0,0-3.018-.242c-.721-.035-1.4-.067-2.037-.128a.308.308,0,0,1-.177-.077c-1.027-.91-1.93-1.691-2.83-2.468l-.085-.073a2.938,2.938,0,0,0-1.19-.739.787.787,0,0,0-.917.4c-.106.368.238.786.55,1.11.82.85,1.675,1.686,2.541,2.483.232.214.45.429.666.642a14.047,14.047,0,0,0,1.122,1.031c.7.557,2.038.759,3.979.6a.321.321,0,0,1,.337.287.313.313,0,0,1-.287.337q-.661.053-1.235.053" transform="translate(-84.093 -146.944)" fill="#201719"/>
        <path id="패스_6900" data-name="패스 6900" d="M153.022,265.4a45.463,45.463,0,0,1-5.277.04q-2.382-2.415-4.535-5.04a2.9,2.9,0,0,1-.638-1.067,1.012,1.012,0,0,1,.364-1.112c.54-.328,1.207.123,1.672.551,1.558,1.435,3.083,2.906,4.634,4.547a20.916,20.916,0,0,1,3.841.035" transform="translate(-83.091 -150.467)" fill="#ffe9dc"/>
        <path id="패스_6901" data-name="패스 6901" d="M149.645,265.376c-.773,0-1.558-.019-2.352-.058a.312.312,0,0,1-.208-.093c-1.586-1.609-3.118-3.311-4.554-5.062a3.169,3.169,0,0,1-.7-1.188,1.32,1.32,0,0,1,.5-1.458c.386-.234,1.055-.323,2.046.588,1.731,1.594,3.179,3.012,4.546,4.454a21.319,21.319,0,0,1,3.749.048.313.313,0,0,1,.279.343.306.306,0,0,1-.343.279,20.661,20.661,0,0,0-3.784-.035.313.313,0,0,1-.253-.1c-1.387-1.468-2.855-2.908-4.618-4.532-.318-.293-.91-.75-1.3-.514a.715.715,0,0,0-.223.767,2.588,2.588,0,0,0,.577.947c1.4,1.7,2.888,3.363,4.43,4.932a45.3,45.3,0,0,0,5.119-.045.317.317,0,0,1,.333.291.313.313,0,0,1-.291.333c-.961.065-1.952.1-2.962.1" transform="translate(-82.655 -150.031)" fill="#201719"/>
      </g>
    </g>
  </g>
</svg>
