<svg xmlns="http://www.w3.org/2000/svg" viewBox="0 0 64 64">
  <circle cx="32" cy="32" r="30" fill="#ffffff" stroke="#111111" stroke-width="2.5"/>
  <polygon points="32,20 41.4,26.8 37.8,37.9 26.2,37.9 22.6,26.8"
           fill="#111111"/>
  <g stroke="#111111" stroke-width="2.5" stroke-linecap="round" fill="none">
    <line x1="32" y1="20" x2="32" y2="6"/>
    <line x1="41.4" y1="26.8" x2="54.5" y2="22.5"/>
    <line x1="37.8" y1="37.9" x2="46.5" y2="49.2"/>
    <line x1="26.2" y1="37.9" x2="17.5" y2="49.2"/>
    <line x1="22.6" y1="26.8" x2="9.5" y2="22.5"/>
  </g>
  <g fill="#111111">
    <polygon points="32,6 28,3 36,3" opacity="0.95"/>
    <polygon points="54.5,22.5 58.5,21 56,28" opacity="0.95"/>
    <polygon points="46.5,49.2 51,52 43,54" opacity="0.95"/>
    <polygon points="17.5,49.2 13,52 21,54" opacity="0.95"/>
    <polygon points="9.5,22.5 5.5,21 8,28" opacity="0.95"/>
  </g>
</svg>
